<?xml version="1.0" encoding="UTF-8" standalone="no"?>
<!-- Created with Inkscape (http://www.inkscape.org/) -->

<svg
   xmlns:dc="http://purl.org/dc/elements/1.1/"
   xmlns:cc="http://creativecommons.org/ns#"
   xmlns:rdf="http://www.w3.org/1999/02/22-rdf-syntax-ns#"
   xmlns:svg="http://www.w3.org/2000/svg"
   xmlns="http://www.w3.org/2000/svg"
   xmlns:sodipodi="http://sodipodi.sourceforge.net/DTD/sodipodi-0.dtd"
   xmlns:inkscape="http://www.inkscape.org/namespaces/inkscape"
   width="504.32117"
   height="445.21323"
   viewBox="0 0 133.43498 117.796"
   version="1.1"
   id="svg918"
   inkscape:version="0.92.4 (5da689c313, 2019-01-14)"
   sodipodi:docname="login.svg">
  <defs
     id="defs912" />
  <sodipodi:namedview
     id="base"
     pagecolor="#ffffff"
     bordercolor="#666666"
     borderopacity="1.0"
     inkscape:pageopacity="0.0"
     inkscape:pageshadow="2"
     inkscape:zoom="0.51523438"
     inkscape:cx="631.60955"
     inkscape:cy="310.33018"
     inkscape:document-units="mm"
     inkscape:current-layer="layer5"
     showgrid="false"
     inkscape:window-width="1277"
     inkscape:window-height="735"
     inkscape:window-x="555"
     inkscape:window-y="212"
     inkscape:window-maximized="0"
     units="px" />
  <metadata
     id="metadata915">
    <rdf:RDF>
      <cc:Work
         rdf:about="">
        <dc:format>image/svg+xml</dc:format>
        <dc:type
           rdf:resource="http://purl.org/dc/dcmitype/StillImage" />
        <dc:title></dc:title>
      </cc:Work>
    </rdf:RDF>
  </metadata>
  <g
     inkscape:groupmode="layer"
     id="layer5"
     inkscape:label="fondo0"
     transform="translate(-2.2199745,-174.19485)"
     style="display:inline;opacity:1">
    <circle
       style="display:inline;opacity:1;vector-effect:none;fill:#f2f2f2;fill-opacity:1;stroke:none;stroke-width:0.36580852;stroke-linecap:round;stroke-linejoin:miter;stroke-miterlimit:4;stroke-dasharray:none;stroke-dashoffset:0;stroke-opacity:1"
       id="path1638"
       cx="79.675835"
       cy="236.01173"
       r="55.796207" />
  </g>
  <g
     inkscape:groupmode="layer"
     id="layer4"
     inkscape:label="estrellas"
     transform="translate(-2.2199745,-174.19485)">
    <circle
       style="display:inline;opacity:0.71100003;fill:#ffffff;fill-opacity:1;stroke-width:0.1582419"
       cx="181.03006"
       cy="-154.06737"
       r="0.43103507"
       id="circle12-6"
       transform="rotate(101.77275)" />
    <circle
       style="display:inline;opacity:0.71100003;fill:#ffffff;fill-opacity:1;stroke-width:0.1582419"
       cx="180.11134"
       cy="-137.19691"
       r="0.85150123"
       id="circle14"
       transform="rotate(101.77275)" />
    <circle
       style="display:inline;opacity:0.71100003;fill:#ffffff;fill-opacity:1;stroke-width:0.1582419"
       cx="278.00659"
       cy="-68.497505"
       r="0.9214077"
       id="circle18"
       transform="rotate(87.811082)" />
    <circle
       style="display:inline;opacity:0.71100003;fill:#ffffff;fill-opacity:1;stroke-width:0.1582419"
       cx="196.14665"
       cy="-159.49754"
       r="0.61672086"
       id="circle22-0"
       transform="rotate(101.77275)" />
    <circle
       style="display:inline;opacity:0.71100003;fill:#ffffff;fill-opacity:1;stroke-width:0.1582419"
       cx="269.41797"
       cy="-70.365814"
       r="0.39532626"
       id="circle24-6"
       transform="rotate(87.811082)" />
    <circle
       style="display:inline;opacity:0.71100003;fill:#ffffff;fill-opacity:1;stroke-width:0.1582419"
       cx="182.11578"
       cy="-125.17046"
       r="0.49203572"
       id="circle26-2"
       transform="rotate(101.77275)" />
    <circle
       style="display:inline;opacity:0.71100003;fill:#ffffff;fill-opacity:1;stroke-width:0.1582419"
       cx="192.05431"
       cy="-118.32205"
       r="0.53284633"
       id="circle28-6"
       transform="rotate(101.77275)" />
    <polygon
       transform="matrix(-0.03228618,0.15491319,-0.15491319,-0.03228618,143.99656,157.12041)"
       style="display:inline;opacity:0.71100003;fill:#ffffff;fill-opacity:1"
       points="518.555,16.858 518.555,10.213 525.2,10.213 525.2,6.645 518.555,6.645 518.555,0 514.99,0 514.99,6.645 508.342,6.645 508.342,10.213 514.99,10.213 514.99,16.858 "
       id="polygon30" />
    <polygon
       transform="matrix(-0.03228618,0.15491319,-0.15491319,-0.03228618,143.99656,157.12041)"
       style="display:inline;opacity:0.71100003;fill:#ffffff;fill-opacity:1"
       points="675.168,372.612 675.168,368.44 679.342,368.44 679.342,366.201 675.168,366.201 675.168,362.029 672.93,362.029 672.93,366.201 668.758,366.201 668.758,368.44 672.93,368.44 672.93,372.612 "
       id="polygon32" />
    <polygon
       transform="matrix(0.00604398,0.15812642,-0.15812642,0.00604398,107.5165,147.09152)"
       style="display:inline;opacity:0.71100003;fill:#ffffff;fill-opacity:1"
       points="772.527,346.519 775.646,346.519 775.646,344.844 772.527,344.844 772.527,341.725 770.852,341.725 770.852,344.844 767.733,344.844 767.733,346.519 770.852,346.519 770.852,349.638 772.527,349.638 "
       id="polygon34" />
  </g>
  <g
     inkscape:label="fondo1"
     inkscape:groupmode="layer"
     id="layer1"
     transform="translate(-2.2199745,-174.19485)"
     style="display:inline;opacity:0.73200001">
    <circle
       style="fill:#ed9624;fill-opacity:1;stroke-width:0.17130414"
       cx="38.106136"
       cy="246.77942"
       r="35.886162"
       id="circle22" />
    <circle
       style="opacity:0.2;stroke-width:0.17130414"
       cx="38.876385"
       cy="230.5701"
       r="5.2773771"
       id="circle24" />
    <circle
       style="opacity:0.2;stroke-width:0.17130414"
       cx="38.876385"
       cy="265.92853"
       r="9.1474524"
       id="circle26" />
    <circle
       style="opacity:0.2;stroke-width:0.17130414"
       cx="12.313584"
       cy="252.03143"
       r="2.2868621"
       id="circle28" />
    <circle
       style="opacity:0.2;stroke-width:0.17130414"
       cx="50.998638"
       cy="222.63519"
       r="1.215682"
       id="circle32" />
    <circle
       style="opacity:0.2;stroke-width:0.17130414"
       cx="37.293171"
       cy="246.75406"
       r="1.5832133"
       id="circle34" />
    <circle
       style="opacity:0.2;stroke-width:0.17130414"
       cx="66.862183"
       cy="238.1532"
       r="1.215682"
       id="circle38" />
    <circle
       style="opacity:0.2;stroke-width:0.17130414"
       cx="56.822594"
       cy="250.55188"
       r="1.7559839"
       id="circle42" />
    <circle
       style="opacity:0.2;stroke-width:0.17130414"
       cx="18.294613"
       cy="230.5701"
       r="2.2868621"
       id="circle44" />
  </g>
  <g
     inkscape:groupmode="layer"
     id="layer2"
     inkscape:label="user1"
     transform="translate(-2.2199745,-174.19485)"
     style="display:inline">
    <path
       inkscape:connector-curvature="0"
       style="fill:#ed2482;stroke-width:0.06776884"
       d="m 109.18914,197.10121 a 22.844889,22.844889 0 0 1 -1.66372,8.58632 c -0.003,0.006 -0.004,0.0115 -0.008,0.0176 v 8.7e-4 a 22.805103,22.805103 0 0 1 -2.89983,5.12595 q -0.34257,0.45743 -0.70683,0.8959 c -0.0888,0.10708 -0.17892,0.21347 -0.26904,0.31851 q -0.69633,0.80815 -1.46517,1.54853 -0.1789,0.17281 -0.36188,0.34155 c -0.0285,0.0265 -0.0569,0.0521 -0.0854,0.0786 a 22.893596,22.893596 0 0 1 -1.873812,1.53836 q -0.65566,0.48488 -1.345886,0.92097 -0.15146,0.0966 -0.304968,0.18976 -0.266324,0.16264 -0.537395,0.31783 -0.353754,0.20331 -0.716324,0.39374 c -0.09758,0.0521 -0.195847,0.10233 -0.294114,0.15247 -0.143669,0.0738 -0.288015,0.14504 -0.433723,0.21484 -0.02507,0.0122 -0.05015,0.0244 -0.07522,0.0359 -0.09488,0.0461 -0.19112,0.0908 -0.287339,0.13554 a 22.695542,22.695542 0 0 1 -3.894005,1.38181 c -0.0078,0.002 -0.01423,0.003 -0.02169,0.005 -0.08742,0.0223 -0.175519,0.044 -0.263617,0.0651 -0.06577,0.0162 -0.132147,0.0318 -0.198564,0.0468 a 0.1685967,0.1685967 0 0 1 -0.02507,0.006 c -0.136216,0.0319 -0.272432,0.0624 -0.410002,0.0901 -0.0773,0.0162 -0.154514,0.0325 -0.231776,0.0481 -0.04676,0.0101 -0.0942,0.019 -0.140953,0.0278 -0.059,0.0115 -0.117242,0.0223 -0.176196,0.0339 -0.03254,0.007 -0.06507,0.0122 -0.09827,0.0176 -0.07453,0.0135 -0.149092,0.0272 -0.222961,0.0399 -0.126047,0.0217 -0.253449,0.0428 -0.380182,0.0616 -0.09217,0.0142 -0.183658,0.0278 -0.275825,0.0407 -0.108426,0.0156 -0.216853,0.0299 -0.325964,0.0434 -0.02976,0.004 -0.05961,0.008 -0.08946,0.0115 q -0.05796,0.007 -0.115887,0.0142 c -0.07791,0.009 -0.155868,0.0183 -0.234475,0.0265 -0.04069,0.004 -0.08069,0.009 -0.121301,0.0128 q -0.115888,0.0122 -0.231776,0.0224 c -0.09961,0.009 -0.19924,0.0176 -0.299537,0.0258 -0.121979,0.009 -0.243289,0.0182 -0.365945,0.0258 -0.07861,0.004 -0.15723,0.009 -0.236513,0.0135 -0.201955,0.0108 -0.403911,0.0183 -0.607212,0.0237 -0.100973,0.003 -0.202624,0.004 -0.304283,0.006 h -0.0017 c -0.100982,8.7e-4 -0.202632,0.002 -0.304283,0.002 a 22.983873,22.983873 0 0 1 -3.080092,-0.20605 q -1.123272,-0.15043 -2.210622,-0.40797 c -0.02913,-0.007 -0.05827,-0.0135 -0.08674,-0.021 -0.07318,-0.0169 -0.145702,-0.0352 -0.21821,-0.0535 -0.06436,-0.0162 -0.128085,-0.0332 -0.192466,-0.0502 a 22.726782,22.726782 0 0 1 -4.784485,-1.84263 c -0.0075,-0.003 -0.01561,-0.008 -0.02305,-0.0122 -0.04402,-0.0231 -0.08742,-0.0454 -0.130798,-0.0691 q -0.143326,-0.0752 -0.285305,-0.15315 -0.808145,-0.44424 -1.574951,-0.95013 -0.1972,-0.1291 -0.390341,-0.26227 c -0.04137,-0.0284 -0.082,-0.0569 -0.122666,-0.0854 -0.04273,-0.0298 -0.08538,-0.0596 -0.127404,-0.0895 q -0.167729,-0.11893 -0.333423,-0.24058 -0.686153,-0.50419 -1.331653,-1.05787 a 23.023809,23.023809 0 0 1 -4.009034,-4.46236 q -0.594669,-0.86608 -1.110051,-1.78775 a 22.79675,22.79675 0 0 1 -2.894406,-11.15408 c 0,-12.65041 10.255458,-22.90587 22.905869,-22.90587 12.650411,0 22.905876,10.25546 22.905876,22.90587 z"
       id="path4" />
    <path
       inkscape:connector-curvature="0"
       style="opacity:0.2;stroke-width:0.06776884"
       d="m 89.966508,219.37209 c 0.07323,-0.0169 0.145708,-0.0352 0.218215,-0.0535 0.06438,-0.0162 0.128087,-0.0332 0.192464,-0.0502 0.0035,-0.13485 0.0078,-0.28327 0.01284,-0.44388 0.04,-1.25779 0.134186,-3.28272 0.356461,-5.72239 q 0.01822,-0.19621 0.03661,-0.3951 c 0.0793,-0.82679 0.172127,-1.69626 0.283269,-2.59758 0.0035,-0.0298 0.0078,-0.059 0.01085,-0.0888 0.09013,-0.73055 0.192464,-1.48075 0.307675,-2.24518 q 0.120955,-0.80205 0.261587,-1.62171 c 0.0069,-0.0379 0.01354,-0.0766 0.0203,-0.11453 0.02716,-0.1579 0.05492,-0.31513 0.08338,-0.4737 0.0793,-0.44118 0.163997,-0.88507 0.25279,-1.32895 0.312412,-1.56139 0.684456,-3.13228 1.128347,-4.66047 a 37.334476,37.334476 0 0 1 1.662367,-4.64961 22.960485,22.960485 0 0 1 1.812145,-3.37692 c 0.01015,-0.0156 0.0203,-0.0306 0.03054,-0.0461 0.891158,-1.3425 1.909726,-2.48169 3.072639,-3.33355 l -0.241259,-0.32935 q -1.671182,1.22492 -3.065863,3.25968 c -0.0043,0.007 -0.0088,0.0128 -0.01354,0.0197 a 22.190024,22.190024 0 0 0 -1.824334,3.27053 35.74097,35.74097 0 0 0 -1.740306,4.70113 q -0.666843,2.23841 -1.196117,4.8502 -0.186018,0.91998 -0.355108,1.88535 c -0.019,0.10978 -0.03791,0.21957 -0.05692,0.33002 0,8.7e-4 -0.0017,0.003 -0.0017,0.004 -0.02915,0.16942 -0.05692,0.33884 -0.08537,0.5103 q -0.105728,0.64752 -0.19924,1.28489 -0.144346,0.98198 -0.26091,1.93006 -0.03861,0.3131 -0.07453,0.62144 -0.05084,0.43508 -0.09624,0.85864 -0.06403,0.58958 -0.117242,1.1541 l -0.01015,0.10368 c -0.0052,0.0596 -0.01084,0.11928 -0.01622,0.17823 -0.27514,2.96761 -0.361216,5.36459 -0.388321,6.56884 z"
       id="path6" />
    <path
       inkscape:connector-curvature="0"
       style="opacity:0.2;stroke-width:0.06776884"
       d="m 95.161674,217.42578 c 0.0078,-0.003 0.01562,-0.008 0.02308,-0.0122 0.139608,-0.0725 0.277863,-0.14639 0.41611,-0.22229 0.04538,-0.54079 0.106396,-1.13513 0.186364,-1.75996 0.01692,-0.12876 0.03392,-0.25955 0.05284,-0.39102 0.0095,-0.0704 0.01969,-0.14164 0.02976,-0.21348 0.07999,-0.55028 0.174842,-1.11818 0.288691,-1.6888 0.462867,-2.32853 1.23136,-4.70858 2.507446,-6.1778 0.06846,-0.0793 0.138255,-0.15519 0.210771,-0.22906 a 4.5854064,4.5854064 0 0 1 0.583491,-0.51166 l -0.241258,-0.32867 a 5.2230131,5.2230131 0 0 0 -0.799677,0.73122 q -0.127062,0.1413 -0.248035,0.29411 c -1.174426,1.47804 -1.907695,3.6663 -2.364444,5.83287 -0.119272,0.56519 -0.219569,1.12972 -0.304969,1.67932 q -0.03253,0.2155 -0.06238,0.42694 c -0.132148,0.93114 -0.219569,1.81078 -0.277847,2.57047 z"
       id="path8" />
    <circle
       style="opacity:0.2;stroke-width:0.06776884"
       cx="101.98791"
       cy="186.12141"
       r="2.0390677"
       id="circle10" />
    <circle
       style="opacity:0.2;stroke-width:0.06776884"
       cx="101.33125"
       cy="203.67418"
       r="2.0390677"
       id="circle12" />
    <path
       inkscape:connector-curvature="0"
       style="opacity:0.2;stroke-width:0.06776884"
       d="m 93.892729,189.54645 c 0.432404,2.43949 -0.522125,4.64841 -0.522125,4.64841 0,0 -1.655583,-1.74629 -2.087978,-4.18578 -0.432396,-2.4395 0.522125,-4.64842 0.522125,-4.64842 0,0 1.655582,1.74628 2.087978,4.18579 z"
       id="path14" />
    <path
       inkscape:connector-curvature="0"
       style="opacity:0.2;stroke-width:0.06776884"
       d="m 100.6694,195.33728 c -2.326843,0.85084 -4.664981,0.30482 -4.664981,0.30482 0,0 1.4344,-1.92549 3.761242,-2.77633 2.326839,-0.85085 4.664989,-0.30483 4.664989,-0.30483 0,0 -1.43441,1.9255 -3.76125,2.77634 z"
       id="path16" />
    <path
       inkscape:connector-curvature="0"
       style="opacity:0.2;stroke-width:0.06776884"
       d="m 101.06398,210.88086 c -1.630929,0.59637 -3.272101,0.20733 -3.272101,0.20733 0,0 1.00309,-1.35595 2.634011,-1.95232 1.63093,-0.59636 3.2721,-0.20732 3.2721,-0.20732 0,0 -1.00308,1.35594 -2.63401,1.95231 z"
       id="path18" />
    <path
       inkscape:connector-curvature="0"
       style="fill:#2f2e41;stroke-width:0.06776884"
       d="m 93.192985,210.53775 0.08268,0.0428 c -0.0078,0.0881 -0.02776,0.14233 -0.08268,-0.0428 z"
       id="path20" />
    <path
       inkscape:connector-curvature="0"
       style="fill:#2f2e41;stroke-width:0.06776884"
       d="m 93.302097,210.56621 c 8.67e-4,0.009 0.0017,0.0197 0.0026,0.0291 l -0.02915,-0.0149 c 0.0017,-0.009 0.0017,-0.0182 0.0026,-0.0278 0.0069,-0.11859 -8.67e-4,-0.25888 0.02369,0.0135 z"
       id="path22" />
    <circle
       style="fill:#2f2e41;stroke-width:0.06776884"
       cx="84.499794"
       cy="196.19588"
       r="11.128255"
       id="circle24-3" />
    <circle
       style="fill:#ffffff;stroke-width:0.06776884"
       cx="85.415863"
       cy="200.13135"
       r="6.7392335"
       id="circle26-6" />
    <path
       inkscape:connector-curvature="0"
       style="fill:#ffffff;stroke-width:0.06776884"
       d="m 100.80411,213.0479 -0.008,0.002 -1.567487,0.37612 -3.26375,0.78341 -0.445245,0.10707 -4.963381,1.1907 -0.421533,0.10165 -12.041845,2.88967 a 22.610303,22.610303 0 0 1 -2.38243,-1.07257 c -0.0075,-0.003 -0.01554,-0.008 -0.02305,-0.0122 -0.04402,-0.0231 -0.08743,-0.0454 -0.130798,-0.0691 q -0.143331,-0.0752 -0.285304,-0.15316 -0.808146,-0.44423 -1.574951,-0.95011 -0.197207,-0.12911 -0.390348,-0.26228 c -0.04137,-0.0284 -0.082,-0.0569 -0.122658,-0.0854 -0.04273,-0.0299 -0.08539,-0.0596 -0.127412,-0.0895 q -0.167721,-0.11892 -0.333423,-0.24058 c 1.169694,-2.12591 3.954992,-3.53889 6.740297,-4.31213 2.102182,-0.58417 2.56437,-2.50406 2.524383,-4.21251 a 9.958788,9.958788 0 0 0 -0.09894,-1.16427 11.349773,11.349773 0 0 0 -0.403905,-1.81214 l 6.739617,0.225 0.69531,1.60205 a 3.6250614,3.6250614 0 0 0 -0.01831,0.52995 c 0.05284,1.31404 0.864062,2.16386 1.865008,2.71212 0.130109,0.0711 0.263627,0.13757 0.399157,0.19924 1.641363,0.74612 3.573456,0.79695 3.573456,0.79695 a 6.879893,6.879893 0 0 1 1.768086,0.0332 q 0.213478,0.0325 0.414748,0.0779 a 5.9731085,5.9731085 0 0 1 2.17605,0.97383 6.2077119,6.2077119 0 0 1 0.705479,0.58485 5.6028324,5.6028324 0 0 1 1.000939,1.25034 z"
       id="path28" />
    <path
       inkscape:connector-curvature="0"
       style="fill:#d0cde1;stroke-width:0.06776884"
       d="m 101.81522,213.93635 c -0.0285,0.0265 -0.0569,0.0521 -0.0854,0.0786 a 22.893596,22.893596 0 0 1 -1.873818,1.53836 q -0.65566,0.48488 -1.345885,0.92098 -0.151469,0.0966 -0.30496,0.18974 -0.266333,0.16266 -0.537403,0.31784 -0.353755,0.20331 -0.716324,0.39373 c -0.09758,0.0522 -0.195848,0.10234 -0.294123,0.15248 -0.143669,0.0738 -0.288006,0.14503 -0.433714,0.21483 -0.02508,0.0122 -0.05015,0.0244 -0.07522,0.0359 l -0.28667,-0.23786 3.366753,-4.11493 0.677012,-0.82746 c 0,0 0.270402,0 0.890482,0.45134 a 8.8772719,8.8772719 0 0 1 0.9691,0.83627 c 0.0162,0.0169 0.0332,0.0332 0.0502,0.0501 z"
       id="path30" />
    <path
       inkscape:connector-curvature="0"
       style="fill:#2f2e41;stroke-width:0.06776884"
       d="m 101.76778,213.89027 a 0.77203831,0.77203831 0 0 1 -0.0379,0.1247 22.893596,22.893596 0 0 1 -1.873802,1.53836 7.9933462,7.9933462 0 0 1 -1.747767,0.41541 c 0,0 0.05084,0.25481 0.09691,0.69531 q -0.266333,0.16266 -0.537403,0.31784 -0.353754,0.20331 -0.716315,0.39373 c -0.09759,0.0522 -0.195857,0.10234 -0.294123,0.15248 -0.143669,0.0738 -0.288015,0.14503 -0.433723,0.21483 -0.02507,0.0122 -0.05015,0.0244 -0.07522,0.0359 -0.09488,0.0461 -0.19111,0.0908 -0.287338,0.13554 a 22.695542,22.695542 0 0 1 -3.894006,1.3818 c -0.0078,0.002 -0.01423,0.003 -0.02169,0.005 -0.08742,0.0224 -0.175519,0.044 -0.263617,0.0651 -0.06577,0.0162 -0.132148,0.0318 -0.198564,0.0468 a 0.1685967,0.1685967 0 0 1 -0.02507,0.006 c -0.136216,0.0318 -0.272433,0.0624 -0.409994,0.0901 -0.0773,0.0162 -0.154514,0.0325 -0.231775,0.0481 -0.04677,0.0101 -0.0942,0.019 -0.140954,0.0278 -0.059,0.0115 -0.117241,0.0223 -0.176205,0.0339 -0.03253,0.007 -0.06507,0.0122 -0.09827,0.0176 -0.07453,0.0135 -0.149092,0.0272 -0.222961,0.04 -0.126048,0.0217 -0.253449,0.0428 -0.380182,0.0616 -0.09217,0.0142 -0.183658,0.0278 -0.275816,0.0407 -0.108427,0.0156 -0.216862,0.0299 -0.325974,0.0434 -0.02976,0.004 -0.0596,0.008 -0.08945,0.0115 q -0.05796,0.007 -0.115888,0.0142 c -0.07791,0.009 -0.155868,0.0183 -0.234483,0.0265 -0.04069,0.004 -0.08069,0.009 -0.121302,0.0128 q -0.115888,0.0122 -0.231767,0.0224 c -0.09962,0.009 -0.19924,0.0176 -0.299537,0.0258 -0.121987,0.009 -0.243289,0.0183 -0.365953,0.0258 -0.07861,0.004 -0.157221,0.009 -0.236513,0.0135 -0.201956,0.0108 -0.403911,0.0183 -0.607212,0.0237 -0.100974,0.003 -0.202624,0.004 -0.304283,0.006 h -0.0017 c -0.100974,8.6e-4 -0.202632,0.002 -0.304283,0.002 a 22.983873,22.983873 0 0 1 -3.080092,-0.20605 q -1.123272,-0.15044 -2.210623,-0.40797 c -0.02913,-0.007 -0.05827,-0.0135 -0.08674,-0.021 -0.07319,-0.0169 -0.145701,-0.0352 -0.218215,-0.0535 -0.06436,-0.0162 -0.128085,-0.0332 -0.192467,-0.0502 a 22.726782,22.726782 0 0 1 -4.784484,-1.84263 c -0.0075,-0.003 -0.01561,-0.008 -0.02305,-0.0122 -0.04402,-0.0231 -0.08742,-0.0454 -0.130791,-0.0691 3.719832,-0.86677 9.598103,-2.23366 14.699065,-3.40471 q 0.214492,-0.0488 0.42627,-0.0976 c 1.883974,-0.43237 3.648669,-0.83491 5.141625,-1.17172 q 0.231775,-0.0519 0.454051,-0.10165 c 1.60408,-0.36054 2.849678,-0.63432 3.525337,-0.77121 a 5.5223726,5.5223726 0 0 1 0.551644,-0.0969 l 1.41025,2.18555 z"
       id="path32" />
    <circle
       style="fill:#2f2e41;stroke-width:0.06776884"
       cx="74.318626"
       cy="188.14566"
       r="3.3148003"
       id="circle34-7" />
    <circle
       style="fill:#2f2e41;stroke-width:0.06776884"
       cx="94.680962"
       cy="187.19856"
       r="3.3148003"
       id="circle36" />
    <path
       inkscape:connector-curvature="0"
       style="fill:#2f2e41;stroke-width:0.06776884"
       d="m 91.129396,185.77795 a 3.3147281,3.3147281 0 0 1 2.959631,-3.2952 3.3148034,3.3148034 0 1 0 0,6.5904 3.3147281,3.3147281 0 0 1 -2.959631,-3.2952 z"
       id="path38" />
    <path
       inkscape:connector-curvature="0"
       style="fill:#2f2e41;stroke-width:0.06776884"
       d="m 70.614839,190.82694 a 3.3147281,3.3147281 0 0 1 -0.192157,-4.42503 3.3148026,3.3148026 0 1 0 4.612353,4.7074 3.3147276,3.3147276 0 0 1 -4.420196,-0.28237 z"
       id="path40" />
    <path
       inkscape:connector-curvature="0"
       style="fill:#2f2e41;stroke-width:0.06776884"
       d="m 84.499791,190.98692 c -3.922957,0 -7.103148,1.85511 -7.103148,4.1435 0,1.02393 0.639246,1.95972 1.694432,2.68267 l 1.367431,-0.99081 -0.371862,1.55222 c 0.154294,0.0715 0.311844,0.14071 0.476166,0.20467 l 2.042804,-2.38328 v 2.92786 a 11.924442,11.924442 0 0 0 1.894177,0.15017 c 3.922953,0 7.103143,-1.85511 7.103143,-4.1435 0,-2.28839 -3.18019,-4.1435 -7.103143,-4.1435 z"
       id="path42" />
    <path
       inkscape:connector-curvature="0"
       style="fill:#2f2e41;stroke-width:0.06776884"
       d="m 91.36616,187.19857 c 0,0 -0.51481,2.36773 2.702235,3.3148 z"
       id="path44" />
    <path
       inkscape:connector-curvature="0"
       style="fill:#2f2e41;stroke-width:0.06776884"
       d="m 77.396643,187.62952 c 0,0 1.183861,2.64708 -2.367713,3.83095 z"
       id="path46-5" />
    <ellipse
       style="fill:#ffffff;stroke-width:0.06776884"
       cx="21.556564"
       cy="215.26003"
       rx="0.56160247"
       ry="1.3478466"
       transform="rotate(-15.63946)"
       id="ellipse48" />
    <ellipse
       style="fill:#ffffff;stroke-width:0.06776884"
       cx="-194.30536"
       cy="104.40893"
       rx="1.3478466"
       ry="0.56160247"
       transform="rotate(-86.47577)"
       id="ellipse50" />
  </g>
  <g
     inkscape:groupmode="layer"
     id="layer3"
     inkscape:label="user2"
     transform="translate(-2.2199745,-174.19485)"
     style="display:inline">
    <path
       inkscape:connector-curvature="0"
       style="fill:#ed2482;stroke-width:0.06849273"
       d="m 128.76671,253.63158 a 23.071914,23.071914 0 0 1 -1.86437,9.11638 l -0.0767,0.17671 a 23.188831,23.188831 0 0 1 -25.22655,13.51019 q -0.20857,-0.037 -0.41644,-0.0767 a 22.943771,22.943771 0 0 1 -4.187644,-1.23492 q -0.329791,-0.13252 -0.654793,-0.27466 c -0.147946,-0.0644 -0.295893,-0.13081 -0.44246,-0.19931 A 23.178916,23.178916 0 0 1 82.465629,253.63158 c 0,-12.78554 10.365003,-23.15055 23.150541,-23.15055 12.78555,0 23.15054,10.36501 23.15054,23.15055 z"
       id="path4-3" />
    <path
       inkscape:connector-curvature="0"
       style="opacity:0.2;stroke-width:0.06849273"
       d="m 101.59908,276.43486 q -0.20857,-0.037 -0.41644,-0.0767 c -0.0904,-2.62395 -0.40068,-8.00953 -1.458894,-13.64991 -0.578762,-3.08697 -1.382178,-6.25133 -2.496557,-9.08008 a 28.260367,28.260367 0 0 0 -1.306166,-2.86574 c -1.126014,-2.1267 -2.491759,-3.91709 -4.147915,-5.1301 l 0.243836,-0.33287 q 2.066088,1.51436 3.713671,4.25202 0.49417,0.81986 0.949315,1.74931 0.488009,0.99451 0.930816,2.11163 0.282532,0.71095 0.545889,1.47123 1.146568,3.301 1.949295,7.53282 0.17774,0.93493 0.33837,1.91574 c 0.82944,5.06641 1.07944,9.75063 1.15478,12.10267 z"
       id="path6-5" />
    <path
       inkscape:connector-curvature="0"
       style="opacity:0.2;stroke-width:0.06849273"
       d="m 96.340205,274.84857 c -0.147947,-0.0644 -0.295893,-0.13082 -0.44246,-0.19931 -0.143157,-1.55479 -0.406168,-3.48354 -0.886985,-5.31435 a 17.435282,17.435282 0 0 0 -0.808899,-2.41095 c -0.54863,-1.28424 -1.258898,-2.37601 -2.177386,-3.0493 l 0.243836,-0.33218 c 0.961643,0.7041 1.703414,1.81711 2.276694,3.11915 0.64589,1.46711 1.076715,3.17465 1.363698,4.80614 0.213009,1.21163 0.347256,2.38217 0.431502,3.3808 z"
       id="path8-6" />
    <circle
       style="opacity:0.2;stroke-width:0.06849273"
       cx="89.469818"
       cy="243.56189"
       r="2.0608482"
       id="circle10-2" />
    <circle
       style="opacity:0.2;stroke-width:0.06849273"
       cx="90.133476"
       cy="261.30212"
       r="2.0608482"
       id="circle12-9" />
    <path
       inkscape:connector-curvature="0"
       style="opacity:0.2;stroke-width:0.06849273"
       d="m 97.651464,247.02349 c -0.43702,2.46556 0.527703,4.69808 0.527703,4.69808 0,0 1.673265,-1.76495 2.110273,-4.2305 0.43702,-2.46556 -0.5277,-4.69808 -0.5277,-4.69808 0,0 -1.673265,1.76495 -2.110276,4.2305 z"
       id="path14-1" />
    <path
       inkscape:connector-curvature="0"
       style="opacity:0.2;stroke-width:0.06849273"
       d="m 90.802407,252.87618 c 2.351691,0.85994 4.714817,0.30809 4.714817,0.30809 0,0 -1.449731,-1.94608 -3.801413,-2.80601 -2.3517,-0.85993 -4.714826,-0.30807 -4.714826,-0.30807 0,0 1.449731,1.94606 3.801422,2.80599 z"
       id="path16-2" />
    <path
       inkscape:connector-curvature="0"
       style="opacity:0.2;stroke-width:0.06849273"
       d="m 90.403615,268.58579 c 1.648346,0.60275 3.307044,0.20956 3.307044,0.20956 0,0 -1.013796,-1.37044 -2.662143,-1.97317 -1.648346,-0.60275 -3.307044,-0.20955 -3.307044,-0.20955 0,0 1.013796,1.37043 2.662143,1.97316 z"
       id="path18-7" />
    <circle
       style="fill:#ffffff;stroke-width:0.06849273"
       cx="105.56863"
       cy="249.73289"
       r="9.0252962"
       id="circle20" />
    <path
       inkscape:connector-curvature="0"
       style="fill:#ffffff;stroke-width:0.06849273"
       d="m 102.04314,256.64288 c 0,0 1.12816,5.35877 1.12816,5.92285 0,0.56408 5.35877,3.10244 5.35877,3.10244 l 4.79469,-0.84612 1.69224,-5.07672 c 0,0 -2.82039,-4.23062 -2.82039,-5.92285 z"
       id="path22-0" />
    <path
       inkscape:connector-curvature="0"
       style="fill:#2f2e41;stroke-width:0.06849273"
       d="m 126.90234,262.74796 -0.0767,0.17671 a 23.188831,23.188831 0 0 1 -25.22655,13.51019 q -0.20857,-0.037 -0.41644,-0.0767 a 22.943771,22.943771 0 0 1 -4.187644,-1.23492 q -0.329791,-0.13252 -0.654793,-0.27466 c -0.147946,-0.0644 -0.295893,-0.13081 -0.44246,-0.19931 a 23.122648,23.122648 0 0 1 -3.784225,-2.21094 l -1.069853,-3.10341 0.601356,-0.4589 1.236982,-0.94451 1.319857,-1.00753 0.343143,-0.26233 5.178742,-3.9534 0.382185,-0.29178 2.69176,-2.05478 8.7e-4,-8.7e-4 c 0,0 2.91094,4.74313 7.14174,3.33287 4.23079,-1.41026 4.13833,-5.45407 4.13833,-5.45407 z"
       id="path24" />
    <path
       inkscape:connector-curvature="0"
       style="fill:#2f2e41;stroke-width:0.06849273"
       d="m 97.741939,242.46151 c 0,0 2.865491,-6.20858 8.357701,-4.77584 5.4922,1.43275 8.59649,3.58188 8.83529,5.731 0.23878,2.14913 -0.11941,5.37281 -0.11941,5.37281 0,0 -0.59697,-4.41764 -4.41764,-3.46248 -3.82065,0.95517 -9.79045,0.2388 -9.79045,0.2388 l -0.955167,8.59649 c 0,0 -1.074564,-1.55214 -2.268521,-0.59698 -1.193957,0.95517 -3.462469,-9.19347 0.358197,-11.1038 z"
       id="path26" />
    <path
       inkscape:connector-curvature="0"
       style="fill:#2f2e41;stroke-width:0.06849273"
       d="m 96.994997,275.12322 q -0.329791,-0.13252 -0.654792,-0.27465 c -0.147947,-0.0644 -0.295893,-0.13082 -0.44246,-0.19931 a 23.207734,23.207734 0 0 1 -5.999284,-4.02053 c 0.629449,-0.85752 1.145205,-1.29382 1.145205,-1.29382 h 4.23079 l 0.634247,2.13286 z"
       id="path28-9" />
    <path
       inkscape:connector-curvature="0"
       style="fill:#2f2e41;stroke-width:0.06849273"
       d="m 123.1962,262.28357 3.62943,0.6411 a 23.14673,23.14673 0 0 1 -3.88764,6.06641 z"
       id="path30-3" />
  </g>
</svg>
