<?xml version="1.0" encoding="UTF-8" standalone="no"?>
<svg
   xmlns:dc="http://purl.org/dc/elements/1.1/"
   xmlns:cc="http://creativecommons.org/ns#"
   xmlns:rdf="http://www.w3.org/1999/02/22-rdf-syntax-ns#"
   xmlns:svg="http://www.w3.org/2000/svg"
   xmlns="http://www.w3.org/2000/svg"
   xmlns:sodipodi="http://sodipodi.sourceforge.net/DTD/sodipodi-0.dtd"
   xmlns:inkscape="http://www.inkscape.org/namespaces/inkscape"
   version="1.1"
   x="0px"
   y="0px"
   viewBox="0 0 27.6 27.6"
   xml:space="preserve"
   id="svg16"
   sodipodi:docname="auth-key.svg"
   width="27.6"
   height="27.6"
   inkscape:version="0.92.4 (5da689c313, 2019-01-14)"><metadata
     id="metadata22"><rdf:RDF><cc:Work
         rdf:about=""><dc:format>image/svg+xml</dc:format><dc:type
           rdf:resource="http://purl.org/dc/dcmitype/StillImage" /></cc:Work></rdf:RDF></metadata><defs
     id="defs20" /><sodipodi:namedview
     pagecolor="#ffffff"
     bordercolor="#666666"
     borderopacity="1"
     objecttolerance="10"
     gridtolerance="10"
     guidetolerance="10"
     inkscape:pageopacity="0"
     inkscape:pageshadow="2"
     inkscape:window-width="837"
     inkscape:window-height="480"
     id="namedview18"
     showgrid="false"
     inkscape:zoom="5.9"
     inkscape:cx="13.8"
     inkscape:cy="9.8"
     inkscape:window-x="0"
     inkscape:window-y="36"
     inkscape:window-maximized="0"
     inkscape:current-layer="svg16" /><style
     type="text/css"
     id="style2">
	.st0{fill-rule:evenodd;clip-rule:evenodd;}
</style><g
     id="g10"
     transform="translate(-2.2,-2.2)"><g
       id="g8"><path
         class="st0"
         d="M 16,2.2 C 8.4,2.2 2.2,8.4 2.2,16 2.2,23.6 8.4,29.8 16,29.8 23.6,29.8 29.8,23.6 29.8,16 29.8,8.4 23.6,2.2 16,2.2 Z m 0,25.9 C 9.3,28.1 3.9,22.7 3.9,16 3.9,9.3 9.3,3.9 16,3.9 c 6.7,0 12.1,5.4 12.1,12.1 0,6.7 -5.4,12.1 -12.1,12.1 z"
         id="path4"
         inkscape:connector-curvature="0"
         style="clip-rule:evenodd;fill-rule:evenodd" /><path
         class="st0"
         d="m 18.2,9.9 c -2.1,0 -3.9,1.7 -3.9,3.9 0,0.4 0.1,0.8 0.2,1.1 l -4,4 C 10.1,19.3 10,20.2 10,20.2 l 1.7,1.7 V 21 h 1.7 v -1.7 h 1.7 v -1.7 l 1.1,-0.5 c 0.6,0.3 1.2,0.5 1.9,0.5 2.1,0 3.9,-1.7 3.9,-3.9 0.1,-2 -1.7,-3.8 -3.8,-3.8 z m 0.4,4.4 c -0.5,0 -0.9,-0.4 -0.9,-0.9 0,-0.5 0.4,-0.9 0.9,-0.9 0.5,0 0.9,0.4 0.9,0.9 0,0.5 -0.4,0.9 -0.9,0.9 z"
         id="path6"
         inkscape:connector-curvature="0"
         style="clip-rule:evenodd;fill-rule:evenodd" /></g></g><text
     x="-2.2"
     y="44.799999"
     font-size="5px"
     font-weight="bold"
     id="text12"
     style="font-weight:bold;font-size:5px;font-family:'Helvetica Neue', Helvetica, Arial-Unicode, Arial, Sans-serif;fill:#000000">Created by Idealogo Studio</text>
<text
     x="-2.2"
     y="49.799999"
     font-size="5px"
     font-weight="bold"
     id="text14"
     style="font-weight:bold;font-size:5px;font-family:'Helvetica Neue', Helvetica, Arial-Unicode, Arial, Sans-serif;fill:#000000">from the Noun Project</text>
</svg>