<?xml version="1.0" encoding="UTF-8" standalone="no"?>
<svg
   xmlns:dc="http://purl.org/dc/elements/1.1/"
   xmlns:cc="http://creativecommons.org/ns#"
   xmlns:rdf="http://www.w3.org/1999/02/22-rdf-syntax-ns#"
   xmlns:svg="http://www.w3.org/2000/svg"
   xmlns="http://www.w3.org/2000/svg"
   xmlns:sodipodi="http://sodipodi.sourceforge.net/DTD/sodipodi-0.dtd"
   xmlns:inkscape="http://www.inkscape.org/namespaces/inkscape"
   version="1.1"
   x="0px"
   y="0px"
   viewBox="0 0 27.200001 27.299999"
   xml:space="preserve"
   id="svg18"
   sodipodi:docname="auth-open.svg"
   width="27.200001"
   height="27.299999"
   inkscape:version="0.92.4 (5da689c313, 2019-01-14)"><metadata
     id="metadata24"><rdf:RDF><cc:Work
         rdf:about=""><dc:format>image/svg+xml</dc:format><dc:type
           rdf:resource="http://purl.org/dc/dcmitype/StillImage" /></cc:Work></rdf:RDF></metadata><defs
     id="defs22" /><sodipodi:namedview
     pagecolor="#ffffff"
     bordercolor="#666666"
     borderopacity="1"
     objecttolerance="10"
     gridtolerance="10"
     guidetolerance="10"
     inkscape:pageopacity="0"
     inkscape:pageshadow="2"
     inkscape:window-width="837"
     inkscape:window-height="480"
     id="namedview20"
     showgrid="false"
     inkscape:zoom="5.9"
     inkscape:cx="-4.6440678"
     inkscape:cy="9.4"
     inkscape:window-x="0"
     inkscape:window-y="36"
     inkscape:window-maximized="0"
     inkscape:current-layer="svg18" /><style
     type="text/css"
     id="style2">
	.st0{fill-rule:evenodd;clip-rule:evenodd;}
</style><g
     id="g12"
     transform="translate(-2,-2.1)"><g
       id="g10"><path
         class="st0"
         d="M 15.6,2.1 C 8.1,2.1 2,8.2 2,15.7 c 0,7.5 6.1,13.6 13.6,13.6 0.9,0 1.7,-0.1 2.6,-0.3 v -1.8 c -0.8,0.2 -1.7,0.3 -2.6,0.3 C 9,27.6 3.7,22.3 3.7,15.7 3.7,9.1 9,3.8 15.6,3.8 c 6.6,0 11.9,5.3 11.9,11.9 0,0.7 -0.1,1.4 -0.2,2 0.6,0.5 1,1 1.4,1.7 C 29,18.2 29.2,17 29.2,15.7 29.2,8.2 23.1,2.1 15.6,2.1 Z"
         id="path4"
         inkscape:connector-curvature="0"
         style="clip-rule:evenodd;fill-rule:evenodd" /><path
         class="st0"
         d="M 10.5,19.1 V 20 c 0,0.5 0.4,0.9 0.9,0.9 h 7.7 c 0.2,-1.1 0.7,-2.1 1.5,-2.8 -0.3,-1.4 -1.3,-2.6 -2.5,-3.3 0.6,-0.6 1,-1.4 1,-2.4 0,-1.9 -1.5,-3.4 -3.4,-3.4 -1.9,0 -3.4,1.5 -3.4,3.4 0,0.9 0.4,1.7 1,2.4 -1.7,0.7 -2.8,2.4 -2.8,4.3 z m 5.1,-8.5 c 0.9,0 1.7,0.8 1.7,1.7 0,0.9 -0.8,1.7 -1.7,1.7 -0.9,0 -1.7,-0.8 -1.7,-1.7 0,-1 0.8,-1.7 1.7,-1.7 z m 0,5.1 c 1.9,0 3.4,1.5 3.4,3.4 h -6.8 c 0,-1.9 1.5,-3.4 3.4,-3.4 z"
         id="path6"
         inkscape:connector-curvature="0"
         style="clip-rule:evenodd;fill-rule:evenodd" /><path
         class="st0"
         d="m 27.5,24.2 v -2.6 c 0,-1.9 -1.5,-3.4 -3.4,-3.4 -1.9,0 -3.4,1.5 -3.4,3.4 v 0.9 h 1.7 v -0.9 c 0,-0.9 0.8,-1.7 1.7,-1.7 0.9,0 1.7,0.8 1.7,1.7 v 2.6 h -5.1 c -0.5,0 -0.9,0.4 -0.9,0.9 v 3.4 c 0,0.5 0.4,0.9 0.9,0.9 h 6.8 c 0.5,0 0.9,-0.4 0.9,-0.9 V 25 c 0,-0.4 -0.4,-0.8 -0.9,-0.8 z m -3.4,3.4 c -0.5,0 -0.9,-0.4 -0.9,-0.9 0,-0.5 0.4,-0.9 0.9,-0.9 0.5,0 0.9,0.4 0.9,0.9 0,0.5 -0.4,0.9 -0.9,0.9 z"
         id="path8"
         inkscape:connector-curvature="0"
         style="clip-rule:evenodd;fill-rule:evenodd" /></g></g><text
     x="-2"
     y="44.900002"
     font-size="5px"
     font-weight="bold"
     id="text14"
     style="font-weight:bold;font-size:5px;font-family:'Helvetica Neue', Helvetica, Arial-Unicode, Arial, Sans-serif;fill:#000000">Created by Idealogo Studio</text>
<text
     x="-2"
     y="49.900002"
     font-size="5px"
     font-weight="bold"
     id="text16"
     style="font-weight:bold;font-size:5px;font-family:'Helvetica Neue', Helvetica, Arial-Unicode, Arial, Sans-serif;fill:#000000">from the Noun Project</text>
</svg>