<?xml version="1.0" encoding="UTF-8" standalone="no"?>
<svg
   xmlns:dc="http://purl.org/dc/elements/1.1/"
   xmlns:cc="http://creativecommons.org/ns#"
   xmlns:rdf="http://www.w3.org/1999/02/22-rdf-syntax-ns#"
   xmlns:svg="http://www.w3.org/2000/svg"
   xmlns="http://www.w3.org/2000/svg"
   xmlns:sodipodi="http://sodipodi.sourceforge.net/DTD/sodipodi-0.dtd"
   xmlns:inkscape="http://www.inkscape.org/namespaces/inkscape"
   xml:space="preserve"
   style="clip-rule:evenodd;fill-rule:evenodd;image-rendering:optimizeQuality;shape-rendering:geometricPrecision;text-rendering:geometricPrecision"
   viewBox="0 0 6.82666 6.82666"
   x="0px"
   y="0px"
   version="1.1"
   id="svg16"
   sodipodi:docname="noun_receipt_IYICON.svg"
   width="6.8266602"
   height="6.8266602"
   inkscape:version="0.92.3 (2405546, 2018-03-11)"><metadata
     id="metadata20"><rdf:RDF><cc:Work
         rdf:about=""><dc:format>image/svg+xml</dc:format><dc:type
           rdf:resource="http://purl.org/dc/dcmitype/StillImage" /></cc:Work></rdf:RDF></metadata><sodipodi:namedview
     pagecolor="#ffffff"
     bordercolor="#666666"
     borderopacity="1"
     objecttolerance="10"
     gridtolerance="10"
     guidetolerance="10"
     inkscape:pageopacity="0"
     inkscape:pageshadow="2"
     inkscape:window-width="640"
     inkscape:window-height="480"
     id="namedview18"
     showgrid="false"
     inkscape:zoom="27.656276"
     inkscape:cx="3.4133301"
     inkscape:cy="2.5599935"
     inkscape:window-x="0"
     inkscape:window-y="27"
     inkscape:window-maximized="0"
     inkscape:current-layer="svg16" /><defs
     id="defs4"><style
       type="text/css"
       id="style2">
   
    .fil0 {fill:black}
   
  </style></defs><g
     id="g10"
     transform="translate(0,3.93701e-6)"><path
       class="fil0"
       d="M 2.17745,1.9334 H 4.64921 4.714312 V 2.063609 H 4.64921 2.17745 2.1123437 V 1.9334 Z M 4.41704,4.89986 V 4.729584 C 4.3317369,4.7189186 4.262595,4.6998557 4.20928,4.6723911 4.155969,4.6449265 4.1097643,4.6003399 4.070989,4.5392731 4.032217,4.4778831 4.009599,4.4032451 4.003461,4.3150371 l 0.171248,-0.032311 c 0.013248,0.091441 0.036508,0.158646 0.07011,0.201622 0.047823,0.060744 0.105335,0.094347 0.17222,0.10113 V 4.0433051 C 4.346925,4.0300571 4.275515,4.0029151 4.202173,3.9618841 4.147889,3.9315101 4.106208,3.8895061 4.076803,3.8358721 4.047401,3.7822341 4.032862,3.7214901 4.032862,3.6533131 c 0,-0.121161 0.042976,-0.219386 0.128598,-0.294346 0.057512,-0.050728 0.142811,-0.081425 0.255579,-0.092732 v -0.081421 h 0.100484 v 0.081421 c 0.098874,0.00937 0.177713,0.038449 0.235547,0.086917 0.074638,0.061713 0.119224,0.146689 0.134413,0.254606 L 4.711389,3.6342501 C 4.701374,3.567368 4.680374,3.5159979 4.6483858,3.4804509 4.6167204,3.4449115 4.5731023,3.4213249 4.5175238,3.4100178 v 0.491122 c 0.085626,0.021646 0.142492,0.038449 0.17028,0.050405 0.052988,0.023264 0.096284,0.051693 0.129563,0.084972 0.033606,0.033602 0.059453,0.073346 0.077228,0.119228 0.018091,0.046205 0.027138,0.095965 0.027138,0.149598 0,0.118256 -0.037803,0.216484 -0.112764,0.295319 -0.074961,0.079161 -0.172217,0.121165 -0.291445,0.12698 v 0.172217 z m 0,-1.49178 C 4.3508,3.418096 4.298457,3.444592 4.260331,3.487564 4.222205,3.53054 4.203142,3.581269 4.203142,3.640072 c 0,0.057835 0.016158,0.106626 0.048787,0.14572 0.032638,0.039094 0.087563,0.070437 0.16511,0.093701 z m 0.100484,1.1774 C 4.58376,4.5774 4.63837,4.548645 4.681666,4.499531 4.724961,4.450421 4.746607,4.389354 4.746607,4.316653 4.746607,4.254944 4.731099,4.205181 4.700729,4.167704 4.670032,4.130224 4.608965,4.096621 4.517524,4.066893 Z M 5.270319,5.088586 V 1.395106 1.33 H 5.205217 1.621427 1.556325 v 0.065106 3.69348 c 0,0.112291 0.04589,0.214327 0.119819,0.28826 0.073933,0.073929 0.175969,0.119823 0.28826,0.119823 h 2.89783 c 0.112291,0 0.214327,-0.045894 0.28826,-0.119823 0.073929,-0.073933 0.119819,-0.175969 0.119819,-0.28826 z m -3.09287,-2.75095 h 1.84014 0.065106 V 2.467841 H 4.017589 2.177449 2.1123427 V 2.337636 Z m 0,0.404232 h 1.62696 0.065102 V 2.872077 H 3.804409 2.177449 2.1123427 V 2.741868 Z m 0,0.404236 h 1.50853 0.065106 V 3.276313 H 3.685979 2.177449 2.1123427 V 3.146104 Z m -3.9e-6,0.40424 h 1.14535 0.065102 v 0.130209 h -0.065102 -1.14535 -0.065106 V 3.550344 Z m 3.9e-6,0.404232 h 1.36641 0.065106 V 4.084785 H 3.543859 2.177449 2.1123427 V 3.954576 Z m 0,0.404236 h 1.36641 0.065106 V 4.489021 H 3.543859 2.177449 2.1123427 V 4.358812 Z m 0,0.404236 h 1.36641 0.065106 V 4.893257 H 3.543859 2.177449 2.1123427 V 4.763048 Z"
       id="path6"
       inkscape:connector-curvature="0"
       style="fill:#000000" /><path
       class="fil0"
       d="m 3.41333,-3.93701e-6 c 1.88513,0 3.41333,1.52820003701 3.41333,3.41333003701 0,1.88513 -1.5282,3.41333 -3.41333,3.41333 C 1.5282,6.8266561 0,5.2984561 0,3.4133261 0,1.5281861 1.5282,-3.93701e-6 3.41333,-3.93701e-6 Z m 0,0.34143699701 c 1.69656,0 3.0719,1.37533004 3.0719,3.07190004 0,1.69656 -1.37533,3.0719 -3.0719,3.0719 -1.69656,0 -3.0719,-1.37533 -3.0719,-3.0719 0,-1.69657 1.37533,-3.07190004 3.0719,-3.07190004 z"
       id="path8"
       inkscape:connector-curvature="0"
       style="fill:#000000" /></g><text
     x="0"
     y="21.826664"
     font-size="5px"
     font-weight="bold"
     id="text12"
     style="font-weight:bold;font-size:5px;font-family:'Helvetica Neue', Helvetica, Arial-Unicode, Arial, Sans-serif;fill:#000000">Created by IYIKON</text>
<text
     x="0"
     y="26.826664"
     font-size="5px"
     font-weight="bold"
     id="text14"
     style="font-weight:bold;font-size:5px;font-family:'Helvetica Neue', Helvetica, Arial-Unicode, Arial, Sans-serif;fill:#000000">from the Noun Project</text>
</svg>