<?xml version="1.0" encoding="UTF-8" standalone="no"?>
<svg
   xmlns:dc="http://purl.org/dc/elements/1.1/"
   xmlns:cc="http://creativecommons.org/ns#"
   xmlns:rdf="http://www.w3.org/1999/02/22-rdf-syntax-ns#"
   xmlns:svg="http://www.w3.org/2000/svg"
   xmlns="http://www.w3.org/2000/svg"
   xmlns:sodipodi="http://sodipodi.sourceforge.net/DTD/sodipodi-0.dtd"
   xmlns:inkscape="http://www.inkscape.org/namespaces/inkscape"
   viewBox="0 0 36 36"
   x="0px"
   y="0px"
   version="1.1"
   id="svg26"
   sodipodi:docname="noun_web.VadimSolomakhin.svg"
   width="36"
   height="36"
   inkscape:version="0.92.4 (5da689c313, 2019-01-14)">
  <metadata
     id="metadata32">
    <rdf:RDF>
      <cc:Work
         rdf:about="">
        <dc:format>image/svg+xml</dc:format>
        <dc:type
           rdf:resource="http://purl.org/dc/dcmitype/StillImage" />
      </cc:Work>
    </rdf:RDF>
  </metadata>
  <defs
     id="defs30" />
  <sodipodi:namedview
     pagecolor="#ffffff"
     bordercolor="#666666"
     borderopacity="1"
     objecttolerance="10"
     gridtolerance="10"
     guidetolerance="10"
     inkscape:pageopacity="0"
     inkscape:pageshadow="2"
     inkscape:window-width="837"
     inkscape:window-height="480"
     id="namedview28"
     showgrid="false"
     inkscape:zoom="5.2444444"
     inkscape:cx="18"
     inkscape:cy="13.5"
     inkscape:window-x="0"
     inkscape:window-y="36"
     inkscape:window-maximized="0"
     inkscape:current-layer="svg26" />
  <title
     id="title2">Монтажная область 71</title>
  <path
     d="M 11.12,9.88 A 0.62,0.62 0 1 1 10.5,9.25 0.62,0.62 0 0 1 11.12,9.88 Z"
     id="path4"
     inkscape:connector-curvature="0" />
  <path
     d="M 13.62,9.88 A 0.62,0.62 0 1 1 13,9.25 0.62,0.62 0 0 1 13.62,9.88 Z"
     id="path6"
     inkscape:connector-curvature="0" />
  <path
     d="M 16.12,9.88 A 0.62,0.62 0 1 1 15.5,9.25 0.62,0.62 0 0 1 16.12,9.88 Z"
     id="path8"
     inkscape:connector-curvature="0" />
  <path
     d="M 26.12,9.88 A 0.62,0.62 0 0 1 25.5,10.5 h -5 a 0.63,0.63 0 0 1 0,-1.25 h 5 a 0.63,0.63 0 0 1 0.62,0.63 z"
     id="path10"
     inkscape:connector-curvature="0" />
  <path
     d="M 18,0 A 18,18 0 1 0 36,18 18,18 0 0 0 18,0 Z M 28,26.75 A 1.25,1.25 0 0 1 26.75,28 H 9.25 A 1.25,1.25 0 0 1 8,26.75 V 13 h 20 z m 0,-15 H 8 V 9.25 A 1.25,1.25 0 0 1 9.25,8 h 17.5 A 1.25,1.25 0 0 1 28,9.25 Z"
     id="path12"
     inkscape:connector-curvature="0" />
  <path
     d="m 18.62,18.62 h 6.88 a 0.62,0.62 0 0 0 0,-1.24 h -6.88 a 0.62,0.62 0 0 0 0,1.24 z"
     id="path14"
     inkscape:connector-curvature="0" />
  <path
     d="m 18.62,16.12 h 6.88 a 0.62,0.62 0 1 0 0,-1.24 h -6.88 a 0.62,0.62 0 0 0 0,1.24 z"
     id="path16"
     inkscape:connector-curvature="0" />
  <path
     d="m 18.62,21.12 h 3.13 a 0.62,0.62 0 1 0 0,-1.24 h -3.13 a 0.62,0.62 0 0 0 0,1.24 z"
     id="path18"
     inkscape:connector-curvature="0" />
  <path
     d="m 10.5,26.12 h 5.62 a 0.63,0.63 0 0 0 0.63,-0.62 v -10 A 0.63,0.63 0 0 0 16.12,14.88 H 10.5 A 0.62,0.62 0 0 0 9.88,15.5 v 10 a 0.62,0.62 0 0 0 0.62,0.62 z m 0.62,-10 h 4.38 v 8.76 h -4.38 z"
     id="path20"
     inkscape:connector-curvature="0" />
  <text
     x="0"
     y="51"
     font-size="5px"
     font-weight="bold"
     id="text22"
     style="font-weight:bold;font-size:5px;font-family:'Helvetica Neue', Helvetica, Arial-Unicode, Arial, Sans-serif;fill:#000000">Created by Vadim Solomakhin</text>
  <text
     x="0"
     y="56"
     font-size="5px"
     font-weight="bold"
     id="text24"
     style="font-weight:bold;font-size:5px;font-family:'Helvetica Neue', Helvetica, Arial-Unicode, Arial, Sans-serif;fill:#000000">from the Noun Project</text>
</svg>
