<?xml version="1.0" encoding="UTF-8" standalone="no"?>
<svg
   xmlns:dc="http://purl.org/dc/elements/1.1/"
   xmlns:cc="http://creativecommons.org/ns#"
   xmlns:rdf="http://www.w3.org/1999/02/22-rdf-syntax-ns#"
   xmlns:svg="http://www.w3.org/2000/svg"
   xmlns="http://www.w3.org/2000/svg"
   xmlns:sodipodi="http://sodipodi.sourceforge.net/DTD/sodipodi-0.dtd"
   xmlns:inkscape="http://www.inkscape.org/namespaces/inkscape"
   version="1.1"
   x="0px"
   y="0px"
   viewBox="0 0 48 48"
   xml:space="preserve"
   id="svg38"
   sodipodi:docname="noun_Food_DinosoftLab.svg"
   width="48"
   height="48"
   inkscape:version="0.92.3 (2405546, 2018-03-11)"><metadata
     id="metadata44"><rdf:RDF><cc:Work
         rdf:about=""><dc:format>image/svg+xml</dc:format><dc:type
           rdf:resource="http://purl.org/dc/dcmitype/StillImage" /></cc:Work></rdf:RDF></metadata><defs
     id="defs42" /><sodipodi:namedview
     pagecolor="#ffffff"
     bordercolor="#666666"
     borderopacity="1"
     objecttolerance="10"
     gridtolerance="10"
     guidetolerance="10"
     inkscape:pageopacity="0"
     inkscape:pageshadow="2"
     inkscape:window-width="640"
     inkscape:window-height="480"
     id="namedview40"
     showgrid="false"
     inkscape:zoom="3.6307692"
     inkscape:cx="24"
     inkscape:cy="17.5"
     inkscape:window-x="0"
     inkscape:window-y="27"
     inkscape:window-maximized="0"
     inkscape:current-layer="svg38" /><style
     type="text/css"
     id="style2">
	.st0{fill:none;}
</style><g
     id="g32"
     transform="translate(-2,-2)"><path
       d="m 17.944275,16.914123 c -0.390625,-0.390625 -1.023438,-0.390625 -1.414063,0 -0.390625,0.390625 -0.390625,1.023926 0,1.414063 l 2.829102,2.828125 c 0.195312,0.195312 0.451172,0.292969 0.707031,0.292969 0.25586,0 0.511719,-0.09766 0.707032,-0.292969 0.390625,-0.390625 0.390625,-1.023926 0,-1.414063 z"
       id="path4"
       inkscape:connector-curvature="0" /><circle
       cx="15.119995"
       cy="26"
       r="3.5"
       id="circle6" /><path
       d="m 19.359314,30.845764 -2.829102,2.828125 c -0.390625,0.390137 -0.390625,1.023438 0,1.414063 0.195313,0.195312 0.451172,0.292969 0.707032,0.292969 0.255859,0 0.511718,-0.09766 0.707031,-0.292969 l 2.829102,-2.828125 c 0.390625,-0.390137 0.390625,-1.023438 0,-1.414063 -0.390625,-0.390625 -1.023438,-0.390625 -1.414063,0 z"
       id="path8"
       inkscape:connector-curvature="0" /><path
       d="m 23.249939,24.001038 h 0.5 c 0.552734,0 1,-0.447754 1,-1 0,-0.552247 -0.447266,-1 -1,-1 h -0.5 c -0.552734,0 -1,0.447753 -1,1 0,0.552246 0.447266,1 1,1 z"
       id="path10"
       inkscape:connector-curvature="0" /><path
       d="m 31.932556,21.44928 c 0.25586,0 0.511719,-0.09766 0.707031,-0.292969 l 2.829102,-2.828125 c 0.390625,-0.390137 0.390625,-1.023438 0,-1.414063 -0.390625,-0.390625 -1.023437,-0.390625 -1.414062,0 l -2.829102,2.828125 c -0.390625,0.390137 -0.390625,1.023438 0,1.414063 0.195312,0.195312 0.451172,0.292969 0.707031,0.292969 z"
       id="path12"
       inkscape:connector-curvature="0" /><circle
       cx="26"
       cy="15.119995"
       r="3.5"
       id="circle14" /><path
       d="m 25.749939,25.001038 c -0.552734,0 -1,0.447753 -1,1 0,0.552246 0.447266,1 1,1 h 0.5 c 0.552734,0 1,-0.447754 1,-1 0,-0.552247 -0.447266,-1 -1,-1 z"
       id="path16"
       inkscape:connector-curvature="0" /><path
       d="m 28.749939,22.001038 h -0.5 c -0.552734,0 -1,0.447753 -1,1 0,0.552246 0.447266,1 1,1 h 0.5 c 0.552734,0 1,-0.447754 1,-1 0,-0.552247 -0.447266,-1 -1,-1 z"
       id="path18"
       inkscape:connector-curvature="0" /><circle
       cx="36.880005"
       cy="26"
       r="3.5"
       id="circle20" /><path
       d="m 23.249939,30.001038 h 0.5 c 0.552734,0 1,-0.447754 1,-1 0,-0.552247 -0.447266,-1 -1,-1 h -0.5 c -0.552734,0 -1,0.447753 -1,1 0,0.552246 0.447266,1 1,1 z"
       id="path22"
       inkscape:connector-curvature="0" /><path
       d="m 32.639587,30.845764 c -0.390625,-0.390625 -1.023437,-0.390625 -1.414062,0 -0.390625,0.390625 -0.390625,1.023926 0,1.414063 l 2.829102,2.828125 c 0.195312,0.195312 0.451171,0.292969 0.707031,0.292969 0.255859,0 0.511719,-0.09766 0.707031,-0.292969 0.390625,-0.390625 0.390625,-1.023926 0,-1.414063 z"
       id="path24"
       inkscape:connector-curvature="0" /><path
       d="M 26,2 C 12.769959,2 2,12.769959 2,26 2,39.22998 12.769959,50 26,50 39.22998,50 50,39.22998 50,26 50,12.769959 39.229981,2 26,2 Z m 0,43 C 15.519959,45 7,36.479981 7,26 7,15.519959 15.519959,7 26,7 36.47998,7 45,15.519959 45,26 45,36.479981 36.479981,45 26,45 Z"
       id="path26"
       inkscape:connector-curvature="0" /><path
       d="m 28.749939,28.001038 h -0.5 c -0.552734,0 -1,0.447753 -1,1 0,0.552246 0.447266,1 1,1 h 0.5 c 0.552734,0 1,-0.447754 1,-1 0,-0.552247 -0.447266,-1 -1,-1 z"
       id="path28"
       inkscape:connector-curvature="0" /><circle
       cx="26"
       cy="36.880005"
       r="3.5"
       id="circle30" /></g><text
     x="-2"
     y="65"
     font-size="5px"
     font-weight="bold"
     id="text34"
     style="font-weight:bold;font-size:5px;font-family:'Helvetica Neue', Helvetica, Arial-Unicode, Arial, Sans-serif;fill:#000000">Created by DinosoftLab</text>
<text
     x="-2"
     y="70"
     font-size="5px"
     font-weight="bold"
     id="text36"
     style="font-weight:bold;font-size:5px;font-family:'Helvetica Neue', Helvetica, Arial-Unicode, Arial, Sans-serif;fill:#000000">from the Noun Project</text>
</svg>