<?xml version="1.0" encoding="UTF-8" standalone="no"?>
<!DOCTYPE svg PUBLIC "-//W3C//DTD SVG 1.1//EN" "http://www.w3.org/Graphics/SVG/1.1/DTD/svg11.dtd">
<svg version="1.1" xmlns="http://www.w3.org/2000/svg" xmlns:xlink="http://www.w3.org/1999/xlink" preserveAspectRatio="xMidYMid meet" viewBox="0 0 400 400" width="400" height="400"><defs><path d="M0 -3L400.93 -3L400.93 400L0 400L0 -3Z" id="a5VkajQzZ"></path><path d="M250.71 200C250.71 227.4 228.15 249.64 200.36 249.64C172.56 249.64 150 227.4 150 200C150 172.6 172.56 150.36 200.36 150.36C228.15 150.36 250.71 172.6 250.71 200Z" id="a2bSylAOP5"></path><path d="M400 97.71C385.65 132.24 376.69 153.82 373.1 162.46C337.42 248.35 274.58 320.19 194.19 366.99C186.63 371.39 167.74 382.4 137.5 400L400 400L400 97.71Z" id="b191zzofIb"></path><path d="M0 148.57C0 148.57 0 148.57 0 148.57C68.83 181.25 128.42 230.57 173.39 292.07C183.92 306.46 210.22 342.44 252.32 400L0 400L0 148.57Z" id="dTBfO5ZRm"></path></defs><g><g><g><use xlink:href="#a5VkajQzZ" opacity="1" fill="#dde9fb" fill-opacity="1"></use></g><g><use xlink:href="#a2bSylAOP5" opacity="1" fill="#458fcb" fill-opacity="1"></use></g><g><use xlink:href="#b191zzofIb" opacity="1" fill="#b5d1e7" fill-opacity="1"></use></g><g><use xlink:href="#dTBfO5ZRm" opacity="1" fill="#9ab6cc" fill-opacity="1"></use></g></g></g></svg>