<?xml version="1.0" encoding="UTF-8" standalone="no"?>
<!-- Created with Inkscape (http://www.inkscape.org/) -->

<svg
   xmlns:dc="http://purl.org/dc/elements/1.1/"
   xmlns:cc="http://creativecommons.org/ns#"
   xmlns:rdf="http://www.w3.org/1999/02/22-rdf-syntax-ns#"
   xmlns:svg="http://www.w3.org/2000/svg"
   xmlns="http://www.w3.org/2000/svg"
   xmlns:sodipodi="http://sodipodi.sourceforge.net/DTD/sodipodi-0.dtd"
   xmlns:inkscape="http://www.inkscape.org/namespaces/inkscape"
   width="110.92905mm"
   height="130.21295mm"
   viewBox="0 0 110.92905 130.21295"
   version="1.1"
   id="svg973"
   inkscape:version="0.92.4 (5da689c313, 2019-01-14)"
   sodipodi:docname="signin.svg">
  <defs
     id="defs967" />
  <sodipodi:namedview
     id="base"
     pagecolor="#ffffff"
     bordercolor="#666666"
     borderopacity="1.0"
     inkscape:pageopacity="0.0"
     inkscape:pageshadow="2"
     inkscape:zoom="0.35"
     inkscape:cx="-618.60938"
     inkscape:cy="-23.282293"
     inkscape:document-units="mm"
     inkscape:current-layer="layer1"
     showgrid="false"
     showguides="false"
     inkscape:window-width="1112"
     inkscape:window-height="695"
     inkscape:window-x="726"
     inkscape:window-y="251"
     inkscape:window-maximized="0" />
  <metadata
     id="metadata970">
    <rdf:RDF>
      <cc:Work
         rdf:about="">
        <dc:format>image/svg+xml</dc:format>
        <dc:type
           rdf:resource="http://purl.org/dc/dcmitype/StillImage" />
        <dc:title />
      </cc:Work>
    </rdf:RDF>
  </metadata>
  <g
     inkscape:label="Capa 1"
     inkscape:groupmode="layer"
     id="layer1"
     transform="translate(-26.178332,-99.731994)">
    <circle
       style="fill:#ff6584;stroke-width:0.26458332"
       cx="-146.97952"
       cy="109.1479"
       id="circle6"
       r="0" />
    <circle
       style="fill:#2f2e41;stroke-width:0.26458332"
       cx="-221.59201"
       cy="227.94582"
       id="circle14"
       r="0" />
    <circle
       style="fill:#ffffff;stroke-width:0.26458332"
       cx="-221.06285"
       cy="222.65414"
       id="circle24"
       r="0" />
    <circle
       style="fill:#3f3d56;stroke-width:0.26458332"
       cx="-221.06285"
       cy="222.65414"
       id="circle26"
       r="0" />
    <circle
       style="fill:#2f2e41;stroke-width:0.26458332"
       cx="-228.73576"
       cy="167.88541"
       id="circle30"
       r="0" />
    <circle
       style="fill:#ffffff;stroke-width:0.26458332"
       cx="-228.2066"
       cy="162.59373"
       id="circle40"
       r="0" />
    <circle
       style="fill:#3f3d56;stroke-width:0.26458332"
       cx="-228.2066"
       cy="162.59373"
       id="circle42"
       r="0" />
    <path
       inkscape:connector-curvature="0"
       style="fill:#f2f2f2;stroke-width:0.19936843"
       d="m 111.10929,182.78164 c -6.09963,22.64596 -19.012444,42.46547 -42.465481,42.46547 -23.453036,0 -42.465477,-19.01244 -42.465477,-42.46547 0,-23.45304 24.719598,-27.13158 42.465477,-42.46548 36.036581,-31.13859 61.407731,-27.86106 42.465481,42.46548 z"
       id="path4-3" />
    <circle
       style="fill:#ff6584;stroke-width:0.19936843"
       cx="123.55032"
       cy="113.28905"
       r="13.557054"
       id="circle6-6" />
    <ellipse
       style="fill:#3f3d56;stroke-width:0.19936843"
       cx="69.161713"
       cy="225.33411"
       rx="33.892635"
       ry="4.6108356"
       id="ellipse10-7" />
    <rect
       style="fill:#ed2482;stroke-width:0.19936843"
       x="78.692436"
       y="118.0739"
       width="45.85474"
       height="23.326107"
       id="rect12-5" />
    <circle
       style="fill:#2f2e41;stroke-width:0.19936843"
       cx="67.32843"
       cy="202.80547"
       r="15.750106"
       id="circle14-3" />
    <rect
       style="fill:#2f2e41;stroke-width:0.19936843"
       x="60.151173"
       y="215.16632"
       width="4.7848425"
       height="8.5728436"
       id="rect16-5" />
    <rect
       style="fill:#2f2e41;stroke-width:0.19936843"
       x="69.720856"
       y="215.16632"
       width="4.7848425"
       height="8.5728436"
       id="rect18-6" />
    <ellipse
       style="fill:#2f2e41;stroke-width:0.19936843"
       cx="64.138535"
       cy="223.83884"
       rx="3.9873686"
       ry="1.4952633"
       id="ellipse20-2" />
    <ellipse
       style="fill:#2f2e41;stroke-width:0.19936843"
       cx="73.708221"
       cy="223.63947"
       rx="3.9873686"
       ry="1.4952633"
       id="ellipse22-9" />
    <circle
       style="fill:#ffffff;stroke-width:0.19936843"
       cx="67.727165"
       cy="198.8181"
       r="5.3829479"
       id="circle24-1" />
    <circle
       style="fill:#3f3d56;stroke-width:0.19936843"
       cx="67.727165"
       cy="198.8181"
       r="1.7943159"
       id="circle26-2" />
    <path
       inkscape:connector-curvature="0"
       style="fill:#ed2482;stroke-width:0.19936843"
       d="m 52.050296,188.15834 c -1.27175,-5.69548 2.79352,-11.45051 9.080036,-12.85424 6.286516,-1.40372 12.413696,2.07543 13.685447,7.7709 1.271751,5.69548 -2.894553,7.79606 -9.181066,9.19979 -6.286514,1.40373 -12.312668,1.57902 -13.584417,-4.11645 z"
       id="path28-7" />
    <circle
       style="fill:#2f2e41;stroke-width:0.19936843"
       cx="61.945488"
       cy="157.54884"
       r="15.750106"
       id="circle30-0" />
    <rect
       style="fill:#2f2e41;stroke-width:0.19936843"
       x="54.768223"
       y="169.90968"
       width="4.7848425"
       height="8.5728436"
       id="rect32-9" />
    <rect
       style="fill:#2f2e41;stroke-width:0.19936843"
       x="64.337906"
       y="169.90968"
       width="4.7848425"
       height="8.5728436"
       id="rect34-3" />
    <ellipse
       style="fill:#2f2e41;stroke-width:0.19936843"
       cx="58.755589"
       cy="178.58221"
       rx="3.9873686"
       ry="1.4952633"
       id="ellipse36-6" />
    <ellipse
       style="fill:#2f2e41;stroke-width:0.19936843"
       cx="68.325279"
       cy="178.38284"
       rx="3.9873686"
       ry="1.4952633"
       id="ellipse38-0" />
    <circle
       style="fill:#ffffff;stroke-width:0.19936843"
       cx="62.344223"
       cy="153.56148"
       r="5.3829479"
       id="circle40-6" />
    <circle
       style="fill:#3f3d56;stroke-width:0.19936843"
       cx="62.344223"
       cy="153.56148"
       r="1.7943159"
       id="circle42-2" />
    <path
       inkscape:connector-curvature="0"
       style="fill:#ed2482;stroke-width:0.19936843"
       d="m 46.667348,142.9017 c -1.271749,-5.69548 2.793521,-11.45051 9.080036,-12.85423 6.286516,-1.40373 12.413696,2.07542 13.685448,7.7709 1.27175,5.69547 -2.894554,7.79606 -9.181067,9.19979 -6.286513,1.40372 -12.312668,1.57901 -13.584417,-4.11646 z"
       id="path44-6" />
    <ellipse
       style="fill:#2f2e41;stroke-width:0.19936843"
       cx="-108.74174"
       cy="123.46432"
       rx="7.8750529"
       ry="2.4722226"
       transform="rotate(-69.08217)"
       id="ellipse46-1" />
    <ellipse
       style="fill:#2f2e41;stroke-width:0.19936843"
       cx="-116.80328"
       cy="104.32355"
       rx="2.4722226"
       ry="7.8750529"
       transform="rotate(-64.62574)"
       id="ellipse48-8" />
    <path
       inkscape:connector-curvature="0"
       style="fill:#ffffff;stroke-width:0.19936843"
       d="m 54.209079,163.23085 c 0,1.54151 3.969149,4.58547 8.373474,4.58547 4.404327,0 8.533879,-4.33985 8.533879,-5.88137 0,-1.54151 -4.129552,0.29906 -8.533879,0.29906 -4.404325,0 -8.373474,-0.54468 -8.373474,0.99684 z"
       id="path50-7" />
    <rect
       style="fill:none;stroke:#3f3d56;stroke-width:0.39873686;stroke-miterlimit:10"
       x="83.078537"
       y="114.68463"
       width="45.85474"
       height="23.326107"
       stroke-miterlimit="10"
       id="rect52-9" />
  </g>
</svg>
