<?xml version="1.0" encoding="UTF-8" standalone="no"?>
<!-- Created with Inkscape (http://www.inkscape.org/) -->

<svg
   xmlns:dc="http://purl.org/dc/elements/1.1/"
   xmlns:cc="http://creativecommons.org/ns#"
   xmlns:rdf="http://www.w3.org/1999/02/22-rdf-syntax-ns#"
   xmlns:svg="http://www.w3.org/2000/svg"
   xmlns="http://www.w3.org/2000/svg"
   xmlns:sodipodi="http://sodipodi.sourceforge.net/DTD/sodipodi-0.dtd"
   xmlns:inkscape="http://www.inkscape.org/namespaces/inkscape"
   width="516.8092"
   height="405.3735"
   viewBox="0 0 136.73911 107.25507"
   version="1.1"
   id="svg4644"
   inkscape:version="0.92.4 (5da689c313, 2019-01-14)"
   sodipodi:docname="repartidor-hero.svg">
  <defs
     id="defs4638" />
  <sodipodi:namedview
     id="base"
     pagecolor="#ffffff"
     bordercolor="#666666"
     borderopacity="1.0"
     inkscape:pageopacity="0.0"
     inkscape:pageshadow="2"
     inkscape:zoom="1.0304688"
     inkscape:cx="613.55779"
     inkscape:cy="321.79164"
     inkscape:document-units="mm"
     inkscape:current-layer="layer2"
     showgrid="false"
     inkscape:window-width="1920"
     inkscape:window-height="1015"
     inkscape:window-x="0"
     inkscape:window-y="36"
     inkscape:window-maximized="1"
     units="px" />
  <metadata
     id="metadata4641">
    <rdf:RDF>
      <cc:Work
         rdf:about="">
        <dc:format>image/svg+xml</dc:format>
        <dc:type
           rdf:resource="http://purl.org/dc/dcmitype/StillImage" />
        <dc:title></dc:title>
      </cc:Work>
    </rdf:RDF>
  </metadata>
  <g
     inkscape:groupmode="layer"
     id="layer2"
     inkscape:label="Fondo"
     style="display:inline;opacity:0.71100003"
     transform="translate(-6.9961687,-77.175592)">
    <path
       inkscape:connector-curvature="0"
       style="display:inline;fill:#cccccc;stroke-width:0.24440837"
       d="M 94.689426,137.53805 C 87.543438,132.19581 76.351046,127.14348 63.98216,123.6767 52.720253,120.52009 41.735751,118.99607 33.049756,119.38526 l -0.04517,-1.01012 c 8.789473,-0.39364 19.887911,1.14317 31.25054,4.32796 12.484227,3.49913 23.797874,8.61111 31.039828,14.02512 z"
       id="path2" />
    <path
       inkscape:connector-curvature="0"
       style="display:inline;fill:#ed2482;stroke-width:0.24440837"
       d="m 93.94759,141.65293 a 33.648136,33.648136 0 0 1 -2.911994,13.73793 q -0.241158,0.54297 -0.502529,1.07582 A 33.775891,33.775891 0 0 1 26.405586,141.65293 q 0,-1.17239 0.07991,-2.32656 0.03796,-0.58694 0.09808,-1.1668 a 33.77269,33.77269 0 0 1 67.364052,3.49336 z"
       id="path4" />
    <path
       inkscape:connector-curvature="0"
       d="m 91.035611,155.39086 q -0.241159,0.54297 -0.50253,1.07582 -1.480267,0.16077 -3.116241,0.23356 c -0.90292,0.0405 -1.832125,0.0607 -2.781555,0.0607 -8.293107,0 -18.273756,-1.53081 -28.469765,-4.38821 -11.362832,-3.18498 -21.642763,-7.63992 -28.947017,-12.54481 q -0.373092,-0.25026 -0.733049,-0.50151 0.03788,-0.58694 0.09809,-1.16681 0.580881,0.41404 1.198158,0.8291 c 7.218297,4.84624 17.395103,9.25367 28.656823,12.41034 10.107016,2.83313 19.993645,4.35081 28.191701,4.35081 q 1.405937,0 2.741118,-0.0596 1.944376,-0.0879 3.664265,-0.29929 z"
       style="display:inline;opacity:0.1;isolation:isolate;stroke-width:0.24440837"
       id="path6" />
    <path
       inkscape:connector-curvature="0"
       style="display:inline;fill:#cccccc;stroke-width:0.24440837"
       d="m 84.635421,155.9522 c -8.292857,2.1e-4 -18.274093,-1.53077 -28.469651,-4.38842 -11.362723,-3.1848 -21.643096,-7.63991 -28.947405,-12.54466 -7.456773,-5.00711 -10.953391,-9.9409 -9.845816,-13.89252 1.107527,-3.95162 6.659097,-6.34935 15.631972,-6.75146 l 0.04517,1.01012 c -4.190223,0.18776 -7.605079,0.81057 -10.149683,1.85109 -2.538423,1.03797 -4.070597,2.43866 -4.553931,4.16317 -0.483332,1.72446 0.09766,3.71741 1.726782,5.92353 1.633122,2.21146 4.226859,4.51833 7.709113,6.85663 7.217467,4.84645 17.394602,9.25396 28.656673,12.41051 10.107274,2.83287 19.993023,4.35093 28.191788,4.35112 q 1.405142,0 2.740546,-0.0598 c 4.190273,-0.18781 7.605126,-0.81058 10.149792,-1.8511 2.538429,-1.03797 4.070599,-2.4386 4.553939,-4.16313 0.86783,-3.09651 -1.75493,-7.12002 -7.385337,-11.32931 l 0.60549,-0.80976 c 2.897353,2.16607 5.042107,4.3012 6.374707,6.34593 1.42858,2.19215 1.89246,4.23313 1.37872,6.06606 -1.10757,3.95161 -6.659183,6.34924 -15.631975,6.75142 -0.902899,0.0405 -1.831553,0.0605 -2.78094,0.0605 z"
       id="path8" />
    <circle
       style="display:inline;fill:#f2f2f2;stroke-width:0.24440837"
       cx="61.069958"
       cy="101.4043"
       r="0.38698399"
       id="circle10" />
    <circle
       style="display:inline;fill:#cccccc;stroke-width:0.24440837"
       cx="9.7302608"
       cy="117.91801"
       r="0.66574395"
       id="circle12" />
    <circle
       style="display:inline;fill:#cccccc;stroke-width:0.24440837"
       cx="8.3113327"
       cy="143.97482"
       r="1.315164"
       id="circle14" />
    <circle
       style="display:inline;fill:#cccccc;stroke-width:0.24440837"
       cx="87.25576"
       cy="103.7262"
       r="0.87652421"
       id="circle16" />
    <circle
       style="display:inline;fill:#cccccc;stroke-width:0.24440837"
       cx="81.621834"
       cy="174.45564"
       r="1.4231362"
       id="circle18"
       transform="rotate(-13.961673)" />
    <circle
       style="display:inline;fill:#cccccc;stroke-width:0.24440837"
       cx="70.493614"
       cy="151.72588"
       r="0.61059082"
       id="circle20"
       transform="rotate(-13.961673)" />
    <circle
       style="display:inline;fill:#cccccc;stroke-width:0.24440837"
       cx="33.078217"
       cy="109.53096"
       r="0.9525401"
       id="circle22" />
    <circle
       style="display:inline;fill:#cccccc;stroke-width:0.24440837"
       cx="68.356537"
       cy="171.56999"
       r="0.61059082"
       id="circle24"
       transform="rotate(-13.961673)" />
    <circle
       style="display:inline;fill:#cccccc;stroke-width:0.24440837"
       cx="11.407192"
       cy="162.55"
       r="0.75996089"
       id="circle26" />
    <circle
       style="display:inline;fill:#cccccc;stroke-width:0.24440837"
       cx="26.7575"
       cy="173.1275"
       r="0.82299387"
       id="circle28" />
    <polygon
       transform="matrix(0.24440837,0,0,0.24440837,-77.681181,88.637685)"
       style="display:inline;fill:#cccccc"
       points="518.555,0 514.99,0 514.99,6.645 508.342,6.645 508.342,10.213 514.99,10.213 514.99,16.858 518.555,16.858 518.555,10.213 525.2,10.213 525.2,6.645 518.555,6.645 "
       id="polygon30" />
    <polygon
       transform="matrix(0.24440837,0,0,0.24440837,-77.681181,88.637685)"
       style="display:inline;fill:#cccccc"
       points="675.168,362.029 672.93,362.029 672.93,366.201 668.758,366.201 668.758,368.44 672.93,368.44 672.93,372.612 675.168,372.612 675.168,368.44 679.342,368.44 679.342,366.201 675.168,366.201 "
       id="polygon32" />
    <polygon
       transform="matrix(0.23718789,-0.05896908,0.05896908,0.23718789,-81.349236,146.9572)"
       style="display:inline;fill:#cccccc"
       points="770.852,341.725 770.852,344.844 767.733,344.844 767.733,346.519 770.852,346.519 770.852,349.638 772.527,349.638 772.527,346.519 775.646,346.519 775.646,344.844 772.527,344.844 772.527,341.725 "
       id="polygon34" />
    <circle
       cx="60.682991"
       cy="115.20913"
       r="2.837872"
       style="display:inline;opacity:0.1;isolation:isolate;stroke-width:0.24440837"
       id="circle36" />
    <circle
       cx="38.882965"
       cy="135.97719"
       r="2.837872"
       style="display:inline;opacity:0.1;isolation:isolate;stroke-width:0.24440837"
       id="circle38-3" />
    <circle
       cx="70.228539"
       cy="164.48491"
       r="2.837872"
       style="display:inline;opacity:0.1;isolation:isolate;stroke-width:0.24440837"
       id="circle40-6" />
    <circle
       cx="60.682991"
       cy="140.36301"
       r="2.837872"
       style="display:inline;opacity:0.1;isolation:isolate;stroke-width:0.24440837"
       id="circle42-7" />
    <circle
       cx="40.301895"
       cy="155.97128"
       r="2.837872"
       style="display:inline;opacity:0.1;isolation:isolate;stroke-width:0.24440837"
       id="circle44-5" />
    <circle
       cx="75.904289"
       cy="125.14167"
       r="2.837872"
       style="display:inline;opacity:0.1;isolation:isolate;stroke-width:0.24440837"
       id="circle46" />
    <circle
       cx="85.320869"
       cy="144.36182"
       r="2.837872"
       style="display:inline;opacity:0.1;isolation:isolate;stroke-width:0.24440837"
       id="circle48" />
    <circle
       style="display:inline;fill:#ffffff;stroke-width:0.24440837"
       cx="60.682991"
       cy="127.97955"
       r="3.7408338"
       id="circle50" />
    <path
       inkscape:connector-curvature="0"
       style="display:inline;fill:#cccccc;stroke-width:0.24440837"
       d="m 60.682984,122.56178 a 5.2887528,5.2887528 0 0 0 -5.288759,5.28876 c 0,2.92089 5.288759,12.51243 5.288759,12.51243 0,0 5.288745,-9.59154 5.288745,-12.51243 a 5.2887528,5.2887528 0 0 0 -5.288745,-5.28876 z m 0,7.86865 a 2.4508954,2.4508954 0 1 1 2.450896,-2.4509 2.4508906,2.4508906 0 0 1 -2.450896,2.4509 z"
       id="path52" />
    <circle
       style="display:inline;fill:#ffffff;stroke-width:0.24440837"
       cx="40.301895"
       cy="143.97482"
       r="3.740829"
       id="circle54" />
    <path
       inkscape:connector-curvature="0"
       style="display:inline;fill:#cccccc;stroke-width:0.24440837"
       d="m 40.301891,138.55706 a 5.2887528,5.2887528 0 0 0 -5.288753,5.28876 c 0,2.9209 5.288753,12.51245 5.288753,12.51245 0,0 5.288745,-9.59155 5.288745,-12.51245 a 5.2887528,5.2887528 0 0 0 -5.288745,-5.28876 z m 0,7.86865 a 2.4508954,2.4508954 0 1 1 2.450898,-2.45089 2.4508881,2.4508881 0 0 1 -2.450898,2.45089 z"
       id="path56-3" />
    <circle
       style="display:inline;fill:#ffffff;stroke-width:0.24440837"
       cx="85.320869"
       cy="132.36536"
       r="3.7408338"
       id="circle58-5" />
    <path
       inkscape:connector-curvature="0"
       style="display:inline;fill:#cccccc;stroke-width:0.24440837"
       d="m 85.32087,126.94759 a 5.2887528,5.2887528 0 0 0 -5.288752,5.28877 c 0,2.9209 5.288752,12.51243 5.288752,12.51243 0,0 5.288752,-9.59153 5.288752,-12.51243 a 5.2887528,5.2887528 0 0 0 -5.288752,-5.28877 z m 0,7.86864 a 2.4508954,2.4508954 0 1 1 2.450911,-2.45089 2.4508881,2.4508881 0 0 1 -2.450911,2.45089 z"
       id="path60" />
    <circle
       style="display:inline;fill:#ffffff;stroke-width:0.24440837"
       cx="60.682991"
       cy="102.82567"
       r="3.7408338"
       id="circle62" />
    <path
       inkscape:connector-curvature="0"
       style="display:inline;fill:#cccccc;stroke-width:0.24440837"
       d="m 60.682984,97.407918 a 5.2887651,5.2887651 0 0 0 -5.288759,5.288752 c 0,2.9209 5.288759,12.51244 5.288759,12.51244 0,0 5.288745,-9.59154 5.288745,-12.51244 a 5.2887528,5.2887528 0 0 0 -5.288745,-5.288752 z m 0,7.868652 a 2.4508954,2.4508954 0 1 1 2.450896,-2.4509 2.4508906,2.4508906 0 0 1 -2.450896,2.4509 z"
       id="path64-6" />
    <circle
       style="display:inline;fill:#ffffff;stroke-width:0.24440837"
       cx="70.228539"
       cy="152.48845"
       r="3.7408338"
       id="circle66" />
    <path
       inkscape:connector-curvature="0"
       style="display:inline;fill:#3f3d56;stroke-width:0.24440837"
       d="m 70.228538,147.07069 a 5.2887528,5.2887528 0 0 0 -5.288752,5.28875 c 0,2.9209 5.288752,12.51244 5.288752,12.51244 0,0 5.288762,-9.59154 5.288762,-12.51244 a 5.2887528,5.2887528 0 0 0 -5.288762,-5.28875 z m 0,7.86864 a 2.4508954,2.4508954 0 1 1 2.450904,-2.45089 2.4508906,2.4508906 0 0 1 -2.450904,2.45089 z"
       id="path68-2" />
    <circle
       style="display:inline;fill:#ffffff;stroke-width:0.24440837"
       cx="38.882965"
       cy="123.72274"
       r="3.7408338"
       id="circle70" />
    <path
       inkscape:connector-curvature="0"
       style="display:inline;fill:#3f3d56;stroke-width:0.24440837"
       d="m 38.882958,118.30499 a 5.2887528,5.2887528 0 0 0 -5.288753,5.28875 c 0,2.9209 5.288753,12.51242 5.288753,12.51242 0,0 5.288756,-9.59152 5.288756,-12.51242 a 5.2887528,5.2887528 0 0 0 -5.288756,-5.28875 z m 0,7.86864 a 2.4508954,2.4508954 0 1 1 2.450898,-2.4509 2.450893,2.450893 0 0 1 -2.450898,2.4509 z"
       id="path72-9" />
    <circle
       style="display:inline;fill:#ffffff;stroke-width:0.24440837"
       cx="75.904289"
       cy="113.27421"
       r="3.7408338"
       id="circle74" />
    <path
       inkscape:connector-curvature="0"
       style="display:inline;fill:#3f3d56;stroke-width:0.24440837"
       d="m 75.904281,107.85646 a 5.2887528,5.2887528 0 0 0 -5.288754,5.28876 c 0,2.9209 5.288754,12.51243 5.288754,12.51243 0,0 5.28876,-9.59153 5.28876,-12.51243 a 5.2887528,5.2887528 0 0 0 -5.28876,-5.28876 z m 0,7.86865 a 2.4508954,2.4508954 0 1 1 2.450904,-2.45089 2.450893,2.450893 0 0 1 -2.450904,2.45088 v 0 z"
       id="path76" />
  </g>
  <g
     inkscape:label="Capa 1"
     inkscape:groupmode="layer"
     id="layer1"
     transform="translate(-6.9961687,-167.80061)"
     style="display:inline">
    <path
       inkscape:connector-curvature="0"
       style="fill:#ed2482;stroke-width:0.18866907"
       d="m 92.448711,205.12628 -16.36622,7.75048 -2.55651,-4.94985 a 1.6715251,1.6715251 0 0 1 0.95866,-2.35337 l 10.07631,-3.34405 0.002,-6.9e-4 a 5.9035708,5.9035708 0 0 1 7.8462,2.8121 z"
       id="path14" />
    <path
       inkscape:connector-curvature="0"
       style="fill:#cccccc;stroke-width:0.18866907"
       d="m 76.701391,190.7313 -11.41465,5.40559 a 1.278633,1.278633 0 0 0 -0.60852,1.70331 l 5.40559,11.41464 a 1.2786349,1.2786349 0 0 0 1.70332,0.60852 l 11.41464,-5.40559 a 1.2786368,1.2786368 0 0 0 0.60852,-1.70332 l -5.40559,-11.41464 a 1.2786349,1.2786349 0 0 0 -1.70331,-0.60851 z"
       id="path16" />
    <path
       inkscape:connector-curvature="0"
       style="fill:#3f3d56;stroke-width:0.18866907"
       d="m 78.172721,200.48415 -4.89234,3.60172 a 1.3604361,1.3604361 0 0 1 -1.89998,-0.2887 l -1.42174,-1.93117 a 1.3604343,1.3604343 0 0 1 0.2887,-1.89999 l 4.89234,-3.60172 a 1.3604343,1.3604343 0 0 1 1.89999,0.28869 l 1.42173,1.93118 a 1.3604323,1.3604323 0 0 1 -0.2887,1.89999 z"
       id="path18" />
    <path
       inkscape:connector-curvature="0"
       style="fill:#ffffff;stroke-width:0.18866907"
       d="m 75.904281,198.48148 -3.73364,2.74868 a 0.31974813,0.31974813 0 0 1 -0.37913,-0.51499 l 3.73363,-2.74868 a 0.31975062,0.31975062 0 0 1 0.37914,0.51499 z"
       id="path20" />
    <path
       inkscape:connector-curvature="0"
       style="fill:#ffffff;stroke-width:0.18866907"
       d="m 75.666521,200.04619 -1.93118,1.42172 a 0.31974704,0.31974704 0 0 1 -0.37913,-0.51498 l 1.93118,-1.42173 a 0.31974835,0.31974835 0 1 1 0.37913,0.51499 z"
       id="path22" />
    <path
       inkscape:connector-curvature="0"
       style="fill:#b3b3b3;stroke-width:0.18866907"
       d="m 78.404691,191.33981 0.71846,1.51714 -13.72647,6.50039 -0.71846,-1.51714 a 1.278633,1.278633 0 0 1 0.60852,-1.70331 l 11.41465,-5.40559 a 1.2786349,1.2786349 0 0 1 1.7033,0.60851 z"
       id="path24" />
    <path
       inkscape:connector-curvature="0"
       style="fill:#ffb8b8;stroke-width:0.18866907"
       d="m 106.75859,180.35138 a 2.0268097,2.0268097 0 0 0 -3.10465,0.14158 l -18.372059,1.80252 1.16617,4.25064 17.692439,-3.10842 a 2.0377978,2.0377978 0 0 0 2.6181,-3.08632 z"
       id="path26" />
    <path
       inkscape:connector-curvature="0"
       style="opacity:0.2;stroke-width:0.18866907"
       d="m 106.75859,180.35138 a 2.0268097,2.0268097 0 0 0 -3.10465,0.14158 l -18.372059,1.80252 1.16617,4.25064 17.692439,-3.10842 a 2.0377978,2.0377978 0 0 0 2.6181,-3.08632 z"
       id="path28" />
    <path
       inkscape:connector-curvature="0"
       style="fill:#ed2482;stroke-width:0.18866907"
       d="m 88.407771,181.69034 0.35174,4.57641 a 0.90879634,0.90879634 0 0 1 -0.96997,0.97618 l -4.56468,-0.32173 a 2.5238962,2.5238962 0 0 1 -0.37207,-5.03405 l 4.44724,-1.0133 a 0.90879261,0.90879261 0 0 1 1.10774,0.81649 z"
       id="path30" />
    <path
       inkscape:connector-curvature="0"
       style="fill:#ed2482;stroke-width:0.18866907"
       d="m 109.69348,183.35321 -4.41575,5.22248 2.05589,2.43142 a 47.872039,47.872039 0 0 1 8.91962,15.95219 v 0 l 4.52105,-1.08907 -0.70795,-10.31128 -5.87713,-9.32463 z"
       id="path32" />
    <path
       inkscape:connector-curvature="0"
       style="fill:#3f3d56;stroke-width:0.18866907"
       d="m 126.83097,190.99853 c -3.69713,1.75084 -5.43725,5.86531 -3.98961,9.30018 l 13.71249,-6.49378 c -1.74004,-3.2964 -6.02574,-4.55724 -9.72288,-2.8064 z"
       id="path34" />
    <path
       inkscape:connector-curvature="0"
       style="fill:#3f3d56;stroke-width:0.18866907"
       d="m 124.22762,192.94148 c -7.38712,-15.10151 -15.3777,-9.60631 -15.3777,-9.60631 0,0 2.40132,4.65232 2.54874,4.76255 10.45395,7.82096 7.14603,24.36033 -5.50252,27.59572 q -0.35771,0.0915 -0.69059,0.16892 a 6.5244223,6.5244223 0 0 1 -7.761869,-4.41623 c -3.19814,-9.70308 -8.79648,-6.85339 -8.79648,-6.85339 l -8.29837,3.92983 -6.14622,-1.83769 a 1.3861329,1.3861329 0 0 0 -1.77769,1.45162 l 0.1582,1.76735 c 0,0 -7.78098,4.72859 -3.30367,12.4198 l 2.53042,-1.19832 a 5.6538163,5.6538163 0 0 0 0.35032,0.66913 l 18.81202,-9.09671 c 1.10268,-0.53325 2.5046,-0.099 3.03339,1.00587 a 2.2174429,2.2174429 0 0 1 -1.11829,2.99205 l -3.09269,1.34035 c 1.04055,4.62174 4.67488,6.34512 8.04907,6.91306 a 15.687533,15.687533 0 0 0 9.300509,-1.35135 l 8.27124,-3.91698 c 10.74245,-5.08726 8.33836,-15.01283 8.33836,-15.01283 4.49649,-5.05198 0.47382,-11.72652 0.47382,-11.72652 z"
       id="path36" />
    <circle
       style="fill:#3f3d56;stroke-width:0.18866907"
       cx="32.313984"
       cy="242.79939"
       r="10.612636"
       id="circle38"
       transform="rotate(-25.340648)" />
    <circle
       style="fill:#ffffff;stroke-width:0.18866907"
       cx="32.313984"
       cy="242.79939"
       r="2.6011355"
       id="circle40"
       transform="rotate(-25.340648)" />
    <circle
       style="fill:#3f3d56;stroke-width:0.18866907"
       cx="-21.268032"
       cy="241.19572"
       r="12.216324"
       id="circle42"
       transform="rotate(-25.340648)" />
    <circle
       style="fill:#ffffff;stroke-width:0.18866907"
       cx="-21.268032"
       cy="241.19572"
       r="2.9941974"
       id="circle44"
       transform="rotate(-25.340648)" />
    <path
       inkscape:connector-curvature="0"
       style="fill:#3f3d56;stroke-width:0.18866907"
       d="m 105.6516,189.32387 -4.62876,-4.54024 a 2.5731502,2.5731502 0 0 1 -0.035,-3.63887 l 4.79244,-4.88551 a 4.5276071,4.5276071 0 0 1 6.40275,-0.0621 4.4987974,4.4987974 0 0 1 0.92215,1.2944 4.56366,4.56366 0 0 1 -0.0201,3.91951 4.4928599,4.4928599 0 0 1 -0.83994,1.18876 z"
       id="path46" />
    <path
       inkscape:connector-curvature="0"
       style="fill:#ed2482;stroke-width:0.18866907"
       d="m 113.01985,177.53186 a 4.4430401,4.4430401 0 0 1 -0.0196,3.83787 5.6578595,5.6578595 0 0 1 -6.69409,-5.45152 4.4347027,4.4347027 0 0 1 6.7137,1.61365 z"
       id="path48" />
    <ellipse
       style="fill:#ed2482;stroke-width:0.18866907"
       cx="-30.937342"
       cy="228.60205"
       rx="2.6413672"
       ry="3.2073743"
       id="ellipse50"
       transform="rotate(-25.340648)" />
    <polygon
       transform="matrix(0.17051518,-0.08075021,0.08075021,0.17051518,5.972542,201.71615)"
       style="fill:#ffb8b8"
       points="450.071,292.005 462.331,292.005 468.164,260.208 450.069,260.209 "
       id="polygon52" />
    <path
       inkscape:connector-curvature="0"
       style="fill:#2f2e41;stroke-width:0.18866907"
       d="m 105.43947,214.73415 4.11681,-1.94978 1.7e-4,-8e-5 a 2.902872,2.902872 0 0 1 3.86606,1.38113 l 0.0404,0.0853 -6.74046,3.19226 z"
       id="path54" />
    <path
       inkscape:connector-curvature="0"
       style="fill:#2f2e41;stroke-width:0.18866907"
       d="m 107.6686,211.78971 q -0.0365,0.0173 -0.0748,0.0316 l -2.99281,1.15939 a 0.84899577,0.84899577 0 0 1 -1.13642,-0.72048 l -0.24763,-10.53232 a 0.6599871,0.6599871 0 0 0 -0.25945,-0.46141 0.65106683,0.65106683 0 0 0 -0.51915,-0.12152 c -2.04601,0.38627 -7.317329,1.33122 -12.063139,1.76346 -2.03327,0.18515 -3.55912,-0.21616 -4.53517,-1.1928 -1.28677,-1.28756 -1.13785,-3.08808 -1.13082,-3.16397 l 0.005,-0.0594 3.96878,-1.45606 4.29111,-1.60258 11.335149,0.56652 a 3.7896072,3.7896072 0 0 1 3.58578,3.68447 l 0.25818,11.31915 a 0.84842409,0.84842409 0 0 1 -0.48481,0.78632 z"
       id="path56" />
    <circle
       style="fill:#ffb8b8;stroke-width:0.18866907"
       cx="-3.4490891"
       cy="192.35706"
       r="4.6339068"
       id="circle58"
       transform="rotate(-25.340648)" />
    <polygon
       transform="matrix(0.17051518,-0.08075021,0.08075021,0.17051518,5.972542,201.71615)"
       style="fill:#ffb8b8"
       points="443.071,295.005 455.331,295.005 461.164,263.208 443.069,263.209 "
       id="polygon60" />
    <path
       inkscape:connector-curvature="0"
       style="fill:#2f2e41;stroke-width:0.18866907"
       d="m 104.48812,215.81095 4.1168,-1.94978 1.7e-4,-8e-5 a 2.902872,2.902872 0 0 1 3.86607,1.38112 l 0.0404,0.0853 -6.74048,3.19227 z"
       id="path62" />
    <path
       inkscape:connector-curvature="0"
       style="fill:#2f2e41;stroke-width:0.18866907"
       d="m 106.71725,212.8665 q -0.0365,0.0173 -0.0749,0.0316 l -2.99282,1.15938 a 0.84899577,0.84899577 0 0 1 -1.13642,-0.72047 l -0.24762,-10.53234 a 0.6599871,0.6599871 0 0 0 -0.25947,-0.4614 0.65106683,0.65106683 0 0 0 -0.51913,-0.12151 c -2.046019,0.38627 -7.317339,1.3312 -12.063149,1.76346 -2.03326,0.18514 -3.55911,-0.21616 -4.53515,-1.19281 -1.28678,-1.28757 -1.13787,-3.08807 -1.13085,-3.16396 l 0.005,-0.0594 3.96878,-1.45607 4.29113,-1.60258 11.335129,0.56651 a 3.7896072,3.7896072 0 0 1 3.58578,3.6845 l 0.25818,11.31914 a 0.84842409,0.84842409 0 0 1 -0.48482,0.78635 z"
       id="path64" />
    <path
       inkscape:connector-curvature="0"
       style="fill:#ed2482;stroke-width:0.18866907"
       d="m 83.610991,181.27566 -5.16015,0.56486 c 0,0 -1.77053,3.45628 2.0785,8.1276 a 14.5298,14.5298 0 0 1 3.3221,8.51389 9.3917016,9.3917016 0 0 1 9e-5,1.15463 c 0,0 7.7712,3.62627 10.2756,-2.98738 l -5.8683,-7.76314 c 0,0 0.10837,-7.04464 -4.64784,-7.61046 z"
       id="path66" />
    <path
       inkscape:connector-curvature="0"
       style="fill:#2f2e41;stroke-width:0.18866907"
       d="m 81.782171,179.40872 c -1.01856,-0.60991 -2.07483,-1.62428 -1.82058,-2.78393 0.25098,-1.14472 1.58714,-1.62634 2.40367,-2.46697 1.13729,-1.17083 1.16994,-3.17377 0.23148,-4.50929 -0.93845,-1.33549 -2.67629,-1.98801 -4.30016,-1.82272 -1.62386,0.16527 -3.11575,1.06811 -4.20834,2.28076 -1.34499,1.49278 -2.14234,3.52594 -1.93402,5.52443 0.20832,1.99851 1.50463,3.90266 3.37885,4.627 2.00938,0.77658 4.29199,0.15617 6.22798,-0.78859"
       id="path68" />
    <path
       inkscape:connector-curvature="0"
       style="fill:#2f2e41;stroke-width:0.18866907"
       d="m 74.282341,173.64308 c -0.46153,0.96714 -1.73608,1.23824 -2.79645,1.08343 -1.06038,-0.1548 -2.07645,-0.6091 -3.14805,-0.61672 -1.88917,-0.0134 -3.51505,1.3602 -4.62274,2.89062 -1.107691,1.53042 -1.896979,3.29382 -3.172689,4.68728 -1.275691,1.39347 -3.27811,2.38077 -5.051811,1.73028 a 4.8548329,4.8548329 0 0 0 8.88265,2.1337 c 1.2326,-1.87559 1.14171,-4.54122 2.80891,-6.04377 0.92256,-0.83147 2.20001,-1.11862 3.41983,-1.35209 1.2198,-0.23346 2.49674,-0.46622 3.48003,-1.22493 0.98328,-0.75867 1.54236,-2.22993 0.87541,-3.2776 z"
       id="path70" />
    <path
       inkscape:connector-curvature="0"
       style="fill:#ffb8b8;stroke-width:0.18866907"
       d="m 106.46941,180.27949 a 2.0268059,2.0268059 0 0 0 -3.06345,0.52355 l -18.009289,4.05554 1.68171,4.07427 17.173739,-5.2676 a 2.0377978,2.0377978 0 0 0 2.21729,-3.38576 z"
       id="path72" />
    <path
       inkscape:connector-curvature="0"
       style="fill:#ed2482;stroke-width:0.18866907"
       d="m 88.424011,183.8724 0.91339,4.49808 a 0.90879634,0.90879634 0 0 1 -0.84211,1.08841 l -4.56949,0.24392 a 2.5238962,2.5238962 0 0 1 -0.99071,-4.94961 l 4.28823,-1.55426 a 0.90879448,0.90879448 0 0 1 1.20002,0.67358 z"
       id="path74" />
    <circle
       style="fill:#ed2482;stroke-width:0.18866907"
       cx="16.984623"
       cy="210.67848"
       r="1.3206836"
       id="circle76"
       transform="rotate(-25.340648)" />
  </g>
</svg>
